<?xml version="1.0" standalone="no"?>
<!DOCTYPE svg PUBLIC "-//W3C//DTD SVG 20010904//EN"
 "http://www.w3.org/TR/2001/REC-SVG-20010904/DTD/svg10.dtd">
<svg version="1.0" xmlns="http://www.w3.org/2000/svg"
 width="1024.000000pt" height="1024.000000pt" viewBox="0 0 1024.000000 1024.000000"
 preserveAspectRatio="xMidYMid meet">

<g transform="translate(0.000000,1024.000000) scale(0.100000,-0.100000)"
fill="#000000" stroke="none">
<path d="M6844 9370 c-110 -16 -211 -60 -309 -132 -70 -51 -173 -156 -212
-213 -14 -22 -27 -41 -28 -43 -1 -1 -58 11 -126 27 -225 55 -328 66 -609 65
-276 0 -418 -15 -639 -69 -57 -14 -105 -24 -106 -23 -1 2 -19 36 -40 77 -46
88 -167 221 -228 250 -64 30 -125 35 -198 17 -193 -50 -319 -232 -319 -461 0
-65 20 -181 41 -241 2 -6 -34 -42 -81 -79 -115 -91 -268 -242 -347 -343 -53
-68 -70 -82 -87 -78 -180 44 -737 25 -873 -29 -49 -20 -62 -44 -70 -140 l-6
-73 40 -23 40 -23 11 -171 c16 -240 63 -410 145 -525 l24 -34 -62 -86 c-122
-166 -199 -310 -242 -447 -26 -85 -27 -95 -26 -300 l2 -213 -34 0 c-75 0 -324
-101 -349 -142 -7 -12 -6 -21 4 -33 17 -21 55 -17 190 20 52 14 120 28 151 32
l56 6 7 -44 c4 -24 9 -53 12 -64 4 -16 -4 -23 -43 -37 -102 -36 -227 -128
-259 -189 -34 -66 32 -68 128 -3 61 41 172 94 197 94 5 0 22 -37 37 -82 43
-131 108 -272 158 -342 75 -105 157 -158 266 -172 50 -6 59 -11 98 -55 156
-175 445 -288 817 -319 77 -6 141 -13 142 -14 1 -1 -33 -72 -75 -156 -81 -161
-159 -338 -197 -450 -17 -51 -26 -65 -41 -64 -10 1 -62 7 -114 13 -81 9 -873
45 -1820 81 -146 6 -488 20 -760 31 -272 11 -517 18 -544 15 -57 -6 -121 -42
-164 -91 -38 -42 -66 -133 -58 -184 5 -32 147 -532 516 -1816 66 -231 123
-428 126 -438 6 -18 -5 -19 -283 -13 -158 3 -381 9 -495 12 l-208 6 0 -80 0
-79 498 -7 c273 -4 508 -9 522 -12 40 -8 100 -140 100 -217 0 -76 19 -115 87
-177 68 -62 106 -73 318 -95 289 -29 1792 -191 2605 -281 296 -33 461 -36 580
-11 47 10 213 49 370 87 157 38 548 132 870 210 322 78 601 146 620 153 57 20
125 95 140 155 13 50 15 52 49 52 20 0 207 -5 416 -10 988 -26 1588 -42 2260
-60 402 -11 747 -20 768 -20 l37 0 0 74 0 73 -152 7 c-84 3 -208 7 -275 7
l-123 1 -5 32 c-2 17 -10 69 -15 116 -12 98 -70 427 -106 603 -13 66 -24 121
-24 123 0 2 16 -4 35 -12 19 -7 50 -14 70 -14 32 0 35 2 30 22 -3 13 -17 84
-31 158 -75 395 -212 868 -390 1342 -215 573 -466 1076 -871 1745 -514 850
-484 798 -455 801 74 7 92 13 92 31 0 10 -30 85 -66 167 -36 82 -107 259 -159
394 -243 642 -367 902 -592 1248 l-73 113 44 62 c102 143 168 315 181 469 12
136 -36 291 -122 397 -89 107 -244 164 -389 141z m192 -198 c91 -46 147 -152
150 -282 1 -47 0 -71 -2 -53 -9 54 -201 216 -223 186 -3 -4 -22 -8 -41 -9
-144 -4 -353 -224 -441 -464 -39 -108 -41 -202 -4 -226 20 -13 30 -14 62 -4
21 7 43 17 50 22 8 6 31 -9 75 -50 35 -33 88 -80 118 -106 88 -76 197 -186
245 -249 70 -92 228 -422 250 -521 1 -6 5 -18 8 -26 21 -48 78 -303 91 -408
17 -129 20 -451 6 -507 -7 -27 -8 -26 -9 15 -1 62 -35 177 -76 264 -35 74
-107 167 -120 154 -4 -3 3 -44 15 -90 43 -159 51 -204 57 -305 5 -81 2 -116
-12 -165 -15 -54 -69 -168 -80 -168 -2 0 -1 38 2 84 4 52 1 103 -6 133 -16 65
-80 193 -96 193 -19 0 -28 -34 -19 -73 12 -55 6 -288 -10 -365 -26 -122 -91
-258 -148 -308 -21 -19 -21 -19 -15 6 30 113 33 305 7 363 -19 39 -28 34 -35
-20 -8 -65 -35 -179 -52 -228 -53 -144 -213 -362 -378 -513 -66 -60 -178 -142
-195 -142 -4 0 3 30 15 68 53 152 36 159 -85 36 -115 -116 -267 -215 -422
-274 -62 -23 -58 -23 -58 -11 0 5 24 34 54 64 60 59 96 112 96 139 0 14 -14 9
-67 -26 -114 -73 -174 -103 -279 -139 -122 -42 -271 -76 -373 -84 -42 -3 -77
-9 -79 -13 -2 -5 -25 -2 -52 5 -49 13 -51 12 -177 -37 -285 -111 -454 -148
-673 -148 -274 1 -531 59 -703 161 -71 42 -137 95 -137 110 0 4 12 -3 26 -16
25 -23 34 -25 128 -25 l101 0 -61 33 c-34 18 -74 43 -90 56 l-29 23 -22 -27
c-13 -14 -23 -23 -23 -20 0 4 10 19 23 34 l22 27 25 -24 c40 -38 218 -119 305
-139 123 -28 309 -25 399 6 70 24 146 84 146 117 0 8 5 12 10 9 18 -11 10 22
-10 40 -15 13 -30 16 -61 12 -23 -3 -45 -10 -48 -15 -23 -37 -286 -49 -406
-18 -101 26 -225 88 -278 140 -90 87 -151 263 -190 547 l-14 96 141 6 c272 12
420 76 494 214 64 121 64 257 2 389 -85 178 -306 293 -597 311 -96 6 -242 -7
-320 -27 -18 -5 -33 -6 -33 -4 0 21 134 181 234 279 143 142 267 238 374 289
42 21 84 41 92 45 22 11 24 50 5 71 -11 12 -38 20 -81 25 -35 3 -64 9 -64 12
0 13 115 221 149 270 20 29 43 53 51 53 30 -1 96 -38 122 -68 36 -43 43 -112
27 -259 -18 -176 -18 -183 12 -205 20 -15 30 -17 52 -9 29 11 33 24 61 173 26
139 35 160 76 171 46 12 224 2 275 -16 46 -16 47 -18 69 -182 18 -133 54 -260
103 -363 47 -100 149 -205 243 -250 179 -85 523 -104 767 -42 294 75 420 268
453 691 15 198 12 192 94 202 106 13 781 -39 827 -64 10 -5 58 -64 105 -130
48 -66 98 -129 112 -140 27 -21 62 -26 62 -8 0 6 -9 8 -22 4 -18 -5 -20 -4 -8
4 8 6 22 8 30 6 19 -6 50 42 50 77 0 18 -2 20 -10 8 -8 -12 -10 -9 -10 13 0
15 -7 44 -15 63 -16 38 -144 234 -178 271 -24 27 -49 31 -287 43 -597 30 -609
31 -627 59 -9 14 -24 31 -32 38 -35 27 -190 60 -396 85 -149 18 -768 18 -885
0 -206 -31 -309 -79 -365 -167 -20 -33 -33 -44 -44 -40 -58 24 -166 36 -268
33 l-113 -4 -53 51 c-29 28 -74 60 -100 71 -26 10 -46 22 -44 26 9 27 160 185
246 259 324 277 710 456 1146 531 112 19 166 22 400 23 174 0 297 -5 345 -13
74 -13 289 -61 301 -68 4 -2 0 -22 -7 -45 -8 -23 -17 -60 -20 -84 -6 -37 -3
-44 22 -64 45 -35 61 -25 126 79 174 277 332 431 492 476 70 19 180 13 232
-14z m-2563 -26 c18 -7 41 -24 52 -37 17 -20 15 -20 -13 4 -41 33 -58 34 -83
5 -46 -52 -63 -109 -64 -205 0 -50 3 -94 6 -98 4 -3 39 10 78 29 39 20 74 36
78 36 5 0 -50 -31 -122 -68 -71 -37 -142 -76 -157 -86 -31 -20 -29 -22 -47 49
-56 212 111 439 272 371z m108 -93 c13 -16 12 -17 -3 -4 -10 7 -18 15 -18 17
0 8 8 3 21 -13z m49 -88 c0 -5 -5 -3 -10 5 -5 8 -10 20 -10 25 0 6 5 3 10 -5
5 -8 10 -19 10 -25z m7 -37 c-3 -8 -6 -5 -6 6 -1 11 2 17 5 13 3 -3 4 -12 1
-19z m2227 -50 c-38 -40 -77 -84 -87 -98 l-18 -25 12 25 c12 24 147 170 157
170 3 0 -26 -33 -64 -72z m313 -120 c-3 -8 -6 -5 -6 6 -1 11 2 17 5 13 3 -3 4
-12 1 -19z m-447 -58 c-6 -11 -13 -20 -16 -20 -2 0 0 9 6 20 6 11 13 20 16 20
2 0 0 -9 -6 -20z m391 -97 c-11 -21 -20 -35 -21 -31 0 12 33 78 38 74 2 -2 -6
-21 -17 -43z m-501 -127 c0 -3 -4 -8 -10 -11 -5 -3 -10 -1 -10 4 0 6 5 11 10
11 6 0 10 -2 10 -4z m80 -59 l-34 -32 30 36 c16 20 31 34 33 32 3 -2 -10 -18
-29 -36z m330 29 c0 -2 -8 -10 -17 -17 -16 -13 -17 -12 -4 4 13 16 21 21 21
13z m-58 -73 c-17 -21 -63 -69 -103 -108 -59 -57 -54 -50 27 37 54 59 101 107
102 107 2 1 -10 -16 -26 -36z m-312 13 c0 -2 -8 -10 -17 -17 -16 -13 -17 -12
-4 4 13 16 21 21 21 13z m391 -273 c29 -42 48 -74 43 -70 -5 3 -30 35 -54 71
-36 53 -49 65 -65 60 -16 -4 -17 -3 -5 5 8 6 18 11 21 11 4 0 30 -35 60 -77z
m-144 31 c-3 -3 -12 -4 -19 -1 -8 3 -5 6 6 6 11 1 17 -2 13 -5z m-3445 -159
c14 -6 8 -23 -44 -121 -33 -63 -88 -185 -123 -271 l-62 -156 -84 -69 c-46 -38
-105 -90 -131 -115 l-46 -45 -28 43 c-72 114 -103 258 -106 486 -3 201 17 234
155 253 68 10 442 6 469 -5z m3678 -5 c6 -11 8 -20 6 -20 -3 0 -10 9 -16 20
-6 11 -8 20 -6 20 3 0 10 -9 16 -20z m-1645 -11 c266 -19 283 -39 272 -317
-16 -392 -106 -553 -340 -607 -211 -48 -461 -38 -631 26 -83 31 -147 97 -196
202 -80 171 -125 467 -86 560 16 38 64 82 114 103 110 46 498 61 867 33z
m1710 -99 c9 -16 13 -30 11 -30 -3 0 -12 14 -21 30 -9 17 -13 30 -11 30 3 0
12 -13 21 -30z m83 -155 c-3 -3 -9 2 -12 12 -6 14 -5 15 5 6 7 -7 10 -15 7
-18z m30 -60 c-3 -3 -9 2 -12 12 -6 14 -5 15 5 6 7 -7 10 -15 7 -18z m71 -150
c0 -5 -11 10 -24 35 -13 25 -24 50 -24 55 0 6 11 -10 24 -35 13 -25 24 -49 24
-55z m41 -90 c0 -5 -5 -3 -10 5 -5 8 -10 20 -10 25 0 6 5 3 10 -5 5 -8 10 -19
10 -25z m39 -90 c0 -5 -8 6 -19 25 -11 19 -19 40 -19 45 0 6 8 -6 19 -25 11
-19 19 -39 19 -45z m81 -200 c0 -5 -5 -3 -10 5 -5 8 -10 20 -10 25 0 6 5 3 10
-5 5 -8 10 -19 10 -25z m20 -50 c0 -5 -5 -3 -10 5 -5 8 -10 20 -10 25 0 6 5 3
10 -5 5 -8 10 -19 10 -25z m34 -95 c5 -17 4 -20 -2 -10 -5 8 -13 26 -16 40 -5
17 -4 20 2 10 5 -8 13 -26 16 -40z m46 -125 c0 -5 -5 -3 -10 5 -5 8 -10 20
-10 25 0 6 5 3 10 -5 5 -8 10 -19 10 -25z m99 -285 c0 -10 -3 -8 -9 5 -12 27
-12 43 0 25 5 -8 9 -22 9 -30z m-59 -16 c0 -2 -9 0 -20 6 -11 6 -20 13 -20 16
0 2 9 0 20 -6 11 -6 20 -13 20 -16z m83 -38 c4 -10 1 -13 -8 -9 -8 3 -12 9 -9
14 7 12 11 11 17 -5z m-53 -176 c6 -11 8 -20 6 -20 -3 0 -10 9 -16 20 -6 11
-8 20 -6 20 3 0 10 -9 16 -20z m-4942 -235 c66 -27 258 -75 303 -75 26 0 26
-1 32 -97 8 -118 57 -363 92 -460 30 -85 31 -99 5 -141 -40 -66 -146 -83 -218
-34 -77 51 -135 153 -207 364 -58 169 -114 488 -83 475 7 -3 41 -18 76 -32z
m5072 5 c6 -11 8 -20 6 -20 -3 0 -10 9 -16 20 -6 11 -8 20 -6 20 3 0 10 -9 16
-20z m80 -135 c14 -19 14 -19 -2 -6 -10 7 -18 18 -18 24 0 6 1 8 3 6 1 -2 9
-13 17 -24z m54 -91 c3 -8 2 -12 -4 -9 -6 3 -10 10 -10 16 0 14 7 11 14 -7z
m46 -74 c6 -11 8 -20 6 -20 -3 0 -10 9 -16 20 -6 11 -8 20 -6 20 3 0 10 -9 16
-20z m-1063 -162 c-3 -8 -6 -5 -6 6 -1 11 2 17 5 13 3 -3 4 -12 1 -19z m-37 8
c0 -2 -8 -10 -17 -17 -16 -13 -17 -12 -4 4 13 16 21 21 21 13z m551 -34 c175
-88 288 -205 457 -475 225 -358 420 -761 567 -1174 52 -144 131 -413 149 -503
66 -344 81 -506 73 -774 -6 -191 -23 -340 -38 -330 -7 4 -91 129 -154 229 -50
78 -354 680 -355 702 -1 4 -9 26 -20 48 -11 22 -19 46 -20 53 0 6 -5 12 -11
12 -6 0 -10 -12 -8 -27 1 -16 -1 -35 -4 -43 -3 -8 -17 -82 -32 -165 -61 -350
-151 -636 -285 -905 -57 -114 -151 -256 -215 -325 -42 -45 -43 -46 -14 -8 17
23 33 53 34 66 2 14 11 37 21 52 l18 28 -24 -8 c-14 -4 -59 -27 -101 -51 -74
-41 -232 -112 -314 -139 -121 -40 -355 -89 -485 -100 -105 -10 -356 -13 -408
-6 -42 6 -44 8 -60 56 -36 104 -125 207 -242 280 -62 39 -171 82 -227 91 -38
5 -44 9 -28 15 11 4 72 27 135 50 115 42 356 155 525 246 50 27 147 80 218
117 160 85 164 101 28 113 l-64 6 7 216 c7 229 24 449 56 750 23 208 25 271 9
271 -18 0 -96 -179 -128 -293 -17 -59 -40 -169 -52 -245 -22 -131 -25 -141
-76 -226 -213 -356 -577 -608 -983 -681 -108 -19 -319 -19 -409 0 -227 48
-436 162 -563 308 -35 39 -76 84 -91 100 -45 47 -60 195 -61 607 -1 367 -3
342 58 655 24 121 47 237 50 258 4 22 13 37 21 37 7 0 56 -42 109 -94 99 -98
198 -159 259 -159 24 0 27 -4 27 -33 0 -42 9 -64 26 -64 19 0 34 32 34 72 0
18 4 38 8 44 7 10 182 77 188 72 1 -2 -4 -30 -12 -63 -24 -105 -15 -190 18
-157 6 6 23 63 37 128 l26 117 120 53 c66 30 121 54 123 54 1 0 0 -22 -4 -49
-4 -33 -2 -51 6 -56 20 -12 38 16 53 80 7 33 18 59 23 58 5 -1 38 13 74 31 48
24 78 49 115 94 56 67 68 75 55 35 -4 -16 -11 -41 -14 -56 -7 -28 -6 -28 31
-21 87 16 367 146 548 256 50 30 97 57 105 60 20 9 295 186 420 272 103 71
301 244 400 350 123 132 115 126 157 126 25 0 65 -14 114 -38z m669 -12 c6
-11 8 -20 6 -20 -3 0 -10 9 -16 20 -6 11 -8 20 -6 20 3 0 10 -9 16 -20z
m-1193 -32 c-3 -8 -6 -5 -6 6 -1 11 2 17 5 13 3 -3 4 -12 1 -19z m-87 -2 c0
-2 -8 -10 -17 -17 -16 -13 -17 -12 -4 4 13 16 21 21 21 13z m1310 -16 c6 -11
8 -20 6 -20 -3 0 -10 9 -16 20 -6 11 -8 20 -6 20 3 0 10 -9 16 -20z m-1350
-33 c0 -2 -10 -12 -22 -23 l-23 -19 19 23 c18 21 26 27 26 19z m1410 -67 c6
-11 8 -20 6 -20 -3 0 -10 9 -16 20 -6 11 -8 20 -6 20 3 0 10 -9 16 -20z
m-1490 -24 c0 -2 -8 -10 -17 -17 -16 -13 -17 -12 -4 4 13 16 21 21 21 13z
m-50 -39 c0 -2 -12 -14 -27 -28 l-28 -24 24 28 c23 25 31 32 31 24z m170 -11
c0 -2 -8 -10 -17 -17 -16 -13 -17 -12 -4 4 13 16 21 21 21 13z m1430 -26 c6
-11 8 -20 6 -20 -3 0 -10 9 -16 20 -6 11 -8 20 -6 20 3 0 10 -9 16 -20z
m-1460 -14 c0 -2 -8 -10 -17 -17 -16 -13 -17 -12 -4 4 13 16 21 21 21 13z
m1495 -42 c9 -15 12 -23 6 -20 -11 7 -35 46 -28 46 3 0 12 -12 22 -26z m-1545
-15 c-7 -11 -14 -18 -17 -15 -3 3 0 12 7 21 18 21 23 19 10 -6z m-50 -42 c0
-2 -10 -12 -22 -23 l-23 -19 19 23 c18 21 26 27 26 19z m1650 -37 c6 -11 8
-20 6 -20 -3 0 -10 9 -16 20 -6 11 -8 20 -6 20 3 0 10 -9 16 -20z m-2005 -30
c-3 -5 -12 -10 -18 -10 -7 0 -6 4 3 10 19 12 23 12 15 0z m-40 -20 c-3 -5 -12
-10 -18 -10 -7 0 -6 4 3 10 19 12 23 12 15 0z m275 -5 c0 -2 -10 -9 -22 -15
-22 -11 -22 -10 -4 4 21 17 26 19 26 11z m1810 -15 c6 -11 8 -20 6 -20 -3 0
-10 9 -16 20 -6 11 -8 20 -6 20 3 0 10 -9 16 -20z m-2125 0 c-3 -5 -12 -10
-18 -10 -7 0 -6 4 3 10 19 12 23 12 15 0z m-115 -55 c0 -2 -10 -9 -22 -15 -22
-11 -22 -10 -4 4 21 17 26 19 26 11z m2280 -15 c6 -11 8 -20 6 -20 -3 0 -10 9
-16 20 -6 11 -8 20 -6 20 3 0 10 -9 16 -20z m-2010 1 c-8 -5 -26 -11 -40 -15
-21 -5 -20 -3 5 9 32 15 60 20 35 6z m-73 -27 c-3 -3 -12 -4 -19 -1 -8 3 -5 6
6 6 11 1 17 -2 13 -5z m-70 -20 c-3 -3 -12 -4 -19 -1 -8 3 -5 6 6 6 11 1 17
-2 13 -5z m-54 -11 c-7 -2 -19 -2 -25 0 -7 3 -2 5 12 5 14 0 19 -2 13 -5z
m-1238 -13 c-3 -5 -12 -10 -18 -10 -7 0 -6 4 3 10 19 12 23 12 15 0z m3489 -6
c3 -8 2 -12 -4 -9 -6 3 -10 10 -10 16 0 14 7 11 14 -7z m-3524 -9 c0 -2 -13
-11 -30 -20 -38 -19 -40 -11 -2 9 31 17 32 18 32 11z m-70 -40 c0 -2 -10 -9
-22 -15 -22 -11 -22 -10 -4 4 21 17 26 19 26 11z m3659 -75 c11 -24 11 -24 -3
-6 -9 11 -16 24 -16 30 0 12 5 7 19 -24z m-3789 5 c0 -6 -76 -45 -87 -45 -4 1
12 12 37 25 50 27 50 27 50 20z m-130 -65 c-8 -5 -19 -10 -25 -10 -5 0 -3 5 5
10 8 5 20 10 25 10 6 0 3 -5 -5 -10z m3980 -50 c11 -22 18 -40 15 -40 -2 0
-14 18 -25 40 -11 22 -18 40 -15 40 2 0 14 -18 25 -40z m-4049 21 c-8 -5 -10
-14 -5 -22 6 -11 4 -11 -10 0 -13 11 -14 16 -4 22 7 5 18 9 23 9 6 0 4 -4 -4
-9z m29 -72 c15 -28 5 -23 -15 7 -9 15 -12 23 -6 20 6 -4 16 -16 21 -27z
m-252 14 c-10 -2 -28 -2 -40 0 -13 2 -5 4 17 4 22 1 32 -1 23 -4z m113 -30
c10 -12 5 -11 -18 6 -18 12 -33 24 -33 27 0 9 37 -15 51 -33z m-181 23 c0 -3
-4 -8 -10 -11 -5 -3 -10 -1 -10 4 0 6 5 11 10 11 6 0 10 -2 10 -4z m4379 -36
c11 -24 11 -24 -3 -6 -9 11 -16 24 -16 30 0 12 5 7 19 -24z m-4446 -85 c-20
-41 -39 -73 -41 -71 -4 5 66 146 73 146 3 0 -12 -34 -32 -75z m302 55 c10 -11
16 -20 13 -20 -3 0 -13 9 -23 20 -10 11 -16 20 -13 20 3 0 13 -9 23 -20z m115
-45 c-7 -8 -20 -15 -29 -14 -11 0 -9 3 7 9 12 5 22 15 22 21 0 7 3 9 6 6 4 -4
1 -13 -6 -22z m4074 -11 c3 -8 2 -12 -4 -9 -6 3 -10 10 -10 16 0 14 7 11 14
-7z m-4553 -127 c-10 -9 -11 -8 -5 6 3 10 9 15 12 12 3 -3 0 -11 -7 -18z
m4613 7 c3 -8 2 -12 -4 -9 -6 3 -10 10 -10 16 0 14 7 11 14 -7z m35 -79 c0 -5
-6 1 -14 15 -8 14 -14 30 -14 35 0 6 6 -1 14 -15 8 -14 14 -29 14 -35z m-4718
-82 c-12 -20 -14 -14 -5 12 4 9 9 14 11 11 3 -2 0 -13 -6 -23z m4753 11 c3 -8
2 -12 -4 -9 -6 3 -10 10 -10 16 0 14 7 11 14 -7z m26 -59 c0 -5 -5 -3 -10 5
-5 8 -10 20 -10 25 0 6 5 3 10 -5 5 -8 10 -19 10 -25z m68 -160 c-3 -3 -9 2
-12 12 -6 14 -5 15 5 6 7 -7 10 -15 7 -18z m-7933 -95 c116 -5 347 -14 515
-20 369 -12 666 -24 1285 -50 982 -42 937 -38 1000 -81 51 -35 71 -76 108
-219 19 -74 98 -380 176 -680 78 -300 212 -824 298 -1165 149 -587 156 -622
142 -650 -25 -53 -57 -60 -194 -46 -66 6 -304 29 -530 51 -712 69 -814 79
-1075 105 -273 27 -328 32 -975 95 -231 22 -434 43 -451 46 -55 10 -89 39
-118 99 -29 62 -143 433 -256 835 -40 140 -109 383 -155 540 -103 351 -282
989 -290 1033 -7 40 20 96 55 115 19 10 55 12 140 8 63 -3 209 -10 325 -16z
m3226 -37 c-12 -20 -14 -14 -5 12 4 9 9 14 11 11 3 -2 0 -13 -6 -23z m-261
-28 c14 -19 14 -19 -2 -6 -10 7 -18 18 -18 24 0 6 1 8 3 6 1 -2 9 -13 17 -24z
m5060 -60 c0 -5 -5 -3 -10 5 -5 8 -10 20 -10 25 0 6 5 3 10 -5 5 -8 10 -19 10
-25z m-4823 3 c-3 -8 -6 -5 -6 6 -1 11 2 17 5 13 3 -3 4 -12 1 -19z m-193 -4
c3 -8 2 -12 -4 -9 -6 3 -10 10 -10 16 0 14 7 11 14 -7z m183 -46 c-3 -7 -5 -2
-5 12 0 14 2 19 5 13 2 -7 2 -19 0 -25z m-10 -50 c-3 -7 -5 -2 -5 12 0 14 2
19 5 13 2 -7 2 -19 0 -25z m-10 -70 c-3 -7 -5 -2 -5 12 0 14 2 19 5 13 2 -7 2
-19 0 -25z m-10 -70 c-3 -7 -5 -2 -5 12 0 14 2 19 5 13 2 -7 2 -19 0 -25z
m4951 7 c-3 -3 -9 2 -12 12 -6 14 -5 15 5 6 7 -7 10 -15 7 -18z m-5021 -27
c-3 -8 -6 -5 -6 6 -1 11 2 17 5 13 3 -3 4 -12 1 -19z m5042 -33 c0 -5 -4 -3
-9 5 -5 8 -9 22 -9 30 0 16 17 -16 18 -35z m-5032 -7 c-3 -8 -6 -5 -6 6 -1 11
2 17 5 13 3 -3 4 -12 1 -19z m50 -70 c-2 -13 -4 -3 -4 22 0 25 2 35 4 23 2
-13 2 -33 0 -45z m5022 -38 c0 -10 -3 -8 -9 5 -12 27 -12 43 0 25 5 -8 9 -22
9 -30z m-5032 -42 c-3 -8 -6 -5 -6 6 -1 11 2 17 5 13 3 -3 4 -12 1 -19z m5067
-58 c5 -17 4 -20 -2 -10 -5 8 -13 26 -16 40 -5 17 -4 20 2 10 5 -8 13 -26 16
-40z m-2767 -157 c-3 -10 -5 -2 -5 17 0 19 2 27 5 18 2 -10 2 -26 0 -35z
m1710 -25 c-2 -13 -4 -5 -4 17 -1 22 1 32 4 23 2 -10 2 -28 0 -40z m-1720
-115 c-3 -10 -5 -4 -5 12 0 17 2 24 5 18 2 -7 2 -21 0 -30z m2860 15 c-3 -8
-6 -5 -6 6 -1 11 2 17 5 13 3 -3 4 -12 1 -19z m-1130 -25 c-3 -10 -5 -4 -5 12
0 17 2 24 5 18 2 -7 2 -21 0 -30z m0 -60 c-3 -10 -5 -4 -5 12 0 17 2 24 5 18
2 -7 2 -21 0 -30z m1160 -25 c-3 -8 -6 -5 -6 6 -1 11 2 17 5 13 3 -3 4 -12 1
-19z m-2897 -143 l0 -154 -31 -16 c-17 -9 -33 -14 -35 -12 -3 2 9 10 26 17
l30 12 0 154 c0 85 2 154 5 154 3 0 5 -70 5 -155z m-2083 73 c-3 -8 -6 -5 -6
6 -1 11 2 17 5 13 3 -3 4 -12 1 -19z m5000 0 c-3 -8 -6 -5 -6 6 -1 11 2 17 5
13 3 -3 4 -12 1 -19z m-1190 -35 c-3 -10 -5 -2 -5 17 0 19 2 27 5 18 2 -10 2
-26 0 -35z m1210 -45 c-3 -8 -6 -5 -6 6 -1 11 2 17 5 13 3 -3 4 -12 1 -19z
m-1220 -30 c-3 -7 -5 -2 -5 12 0 14 2 19 5 13 2 -7 2 -19 0 -25z m-3780 -20
c-3 -7 -5 -2 -5 12 0 14 2 19 5 13 2 -7 2 -19 0 -25z m5020 -30 c-3 -8 -6 -5
-6 6 -1 11 2 17 5 13 3 -3 4 -12 1 -19z m-5010 -25 c-3 -10 -5 -4 -5 12 0 17
2 24 5 18 2 -7 2 -21 0 -30z m3750 -35 c-3 -8 -6 -5 -6 6 -1 11 2 17 5 13 3
-3 4 -12 1 -19z m1280 -30 c-3 -8 -6 -5 -6 6 -1 11 2 17 5 13 3 -3 4 -12 1
-19z m-1290 -10 c-3 -8 -6 -5 -6 6 -1 11 2 17 5 13 3 -3 4 -12 1 -19z m1156
15 c-7 -2 -13 -14 -14 -26 0 -12 -3 -16 -6 -9 -7 18 4 42 19 41 10 0 10 -2 1
-6z m-4876 -70 c-3 -10 -5 -2 -5 17 0 19 2 27 5 18 2 -10 2 -26 0 -35z m5020
25 c-3 -8 -6 -5 -6 6 -1 11 2 17 5 13 3 -3 4 -12 1 -19z m-3107 7 c0 -2 -10
-9 -22 -15 -22 -11 -22 -10 -4 4 21 17 26 19 26 11z m3060 -30 c19 -19 32 -35
29 -35 -3 0 -20 16 -39 35 -19 19 -32 35 -29 35 3 0 20 -16 39 -35z m-91 -35
c0 -9 -4 -8 -9 5 -5 11 -9 27 -9 35 0 9 4 8 9 -5 5 -11 9 -27 9 -35z m-1192
-22 c-3 -8 -6 -5 -6 6 -1 11 2 17 5 13 3 -3 4 -12 1 -19z m-3680 -10 c-3 -8
-6 -5 -6 6 -1 11 2 17 5 13 3 -3 4 -12 1 -19z m4902 -68 c0 -9 -4 -8 -9 5 -5
11 -9 27 -9 35 0 9 4 8 9 -5 5 -11 9 -27 9 -35z m-4892 8 c-3 -8 -6 -5 -6 6
-1 11 2 17 5 13 3 -3 4 -12 1 -19z m1622 18 c-10 -9 -69 -36 -69 -32 0 7 52
35 64 36 5 0 7 -2 5 -4z m-1612 -78 c-3 -7 -5 -2 -5 12 0 14 2 19 5 13 2 -7 2
-19 0 -25z m1493 22 c-8 -5 -19 -10 -25 -10 -5 0 -3 5 5 10 8 5 20 10 25 10 6
0 3 -5 -5 -10z m-50 -20 c-8 -5 -19 -10 -25 -10 -5 0 -3 5 5 10 8 5 20 10 25
10 6 0 3 -5 -5 -10z m-1433 -62 c-3 -8 -6 -5 -6 6 -1 11 2 17 5 13 3 -3 4 -12
1 -19z m1210 -14 c-3 -3 -12 -4 -19 -1 -8 3 -5 6 6 6 11 1 17 -2 13 -5z
m-1200 -36 c-3 -8 -6 -5 -6 6 -1 11 2 17 5 13 3 -3 4 -12 1 -19z m1120 16 c-3
-3 -12 -4 -19 -1 -8 3 -5 6 6 6 11 1 17 -2 13 -5z m3780 -16 c-3 -8 -6 -5 -6
6 -1 11 2 17 5 13 3 -3 4 -12 1 -19z m-3832 2 c-11 -5 -29 -8 -40 -8 -16 0
-15 2 5 8 34 11 60 11 35 0z m2476 -27 c-12 -20 -14 -14 -5 12 4 9 9 14 11 11
3 -2 0 -13 -6 -23z m-2586 -3 c-27 -12 -43 -12 -25 0 8 5 22 9 30 9 10 0 8 -3
-5 -9z m3952 -12 c-3 -8 -6 -5 -6 6 -1 11 2 17 5 13 3 -3 4 -12 1 -19z m-4900
-20 c-3 -7 -5 -2 -5 12 0 14 2 19 5 13 2 -7 2 -19 0 -25z m4910 -20 c-3 -8 -6
-5 -6 6 -1 11 2 17 5 13 3 -3 4 -12 1 -19z m-1406 -11 c-10 -9 -11 -8 -5 6 3
10 9 15 12 12 3 -3 0 -11 -7 -18z m-3494 -9 c-3 -8 -6 -5 -6 6 -1 11 2 17 5
13 3 -3 4 -12 1 -19z m4910 -30 c-3 -7 -5 -2 -5 12 0 14 2 19 5 13 2 -7 2 -19
0 -25z m-4900 -10 c-3 -8 -6 -5 -6 6 -1 11 2 17 5 13 3 -3 4 -12 1 -19z m3454
-11 c-10 -9 -11 -8 -5 6 3 10 9 15 12 12 3 -3 0 -11 -7 -18z m-2781 8 c0 -2
-10 -9 -22 -15 -22 -11 -22 -10 -4 4 21 17 26 19 26 11z m4237 -27 c-3 -8 -6
-5 -6 6 -1 11 2 17 5 13 3 -3 4 -12 1 -19z m-4287 -2 c0 -2 -8 -10 -17 -17
-16 -13 -17 -12 -4 4 13 16 21 21 21 13z m-613 -28 c-3 -8 -6 -5 -6 6 -1 11 2
17 5 13 3 -3 4 -12 1 -19z m4910 -10 c-3 -8 -6 -5 -6 6 -1 11 2 17 5 13 3 -3
4 -12 1 -19z m-4337 9 c0 -2 -12 -14 -27 -28 l-28 -24 24 28 c23 25 31 32 31
24z m2830 -27 c-6 -11 -13 -20 -16 -20 -2 0 0 9 6 20 6 11 13 20 16 20 2 0 0
-9 -6 -20z m-3393 -12 c-3 -8 -6 -5 -6 6 -1 11 2 17 5 13 3 -3 4 -12 1 -19z
m4910 -20 c-3 -8 -6 -5 -6 6 -1 11 2 17 5 13 3 -3 4 -12 1 -19z m-4407 -1 c0
-2 -12 -14 -27 -28 l-28 -24 24 28 c23 25 31 32 31 24z m4417 -49 c-3 -8 -6
-5 -6 6 -1 11 2 17 5 13 3 -3 4 -12 1 -19z m-4900 -20 c-3 -8 -6 -5 -6 6 -1
11 2 17 5 13 3 -3 4 -12 1 -19z m4910 -30 c-3 -8 -6 -5 -6 6 -1 11 2 17 5 13
3 -3 4 -12 1 -19z m-1617 8 c0 -2 -8 -10 -17 -17 -16 -13 -17 -12 -4 4 13 16
21 21 21 13z m-30 -39 c0 -2 -10 -12 -22 -23 l-23 -19 19 23 c18 21 26 27 26
19z m1657 -29 c-3 -7 -5 -2 -5 12 0 14 2 19 5 13 2 -7 2 -19 0 -25z m-4878
-58 c0 -9 -4 -8 -9 5 -5 11 -9 27 -9 35 0 9 4 8 9 -5 5 -11 9 -27 9 -35z
m2941 47 c0 -2 -10 -12 -22 -23 l-23 -19 19 23 c18 21 26 27 26 19z m240 -10
c0 -1 -37 -38 -82 -82 l-83 -80 80 83 c74 76 85 87 85 79z m1707 -29 c-3 -7
-5 -2 -5 12 0 14 2 19 5 13 2 -7 2 -19 0 -25z m-4609 -3 c-6 -14 -13 -23 -15
-21 -5 5 15 46 22 46 3 0 -1 -11 -7 -25z m2612 1 c0 -2 -8 -10 -17 -17 -16
-13 -17 -12 -4 4 13 16 21 21 21 13z m2007 -58 c-3 -7 -5 -2 -5 12 0 14 2 19
5 13 2 -7 2 -19 0 -25z m-4819 15 c-10 -2 -28 -2 -40 0 -13 2 -5 4 17 4 22 1
32 -1 23 -4z m135 -10 c-13 -2 -33 -2 -45 0 -13 2 -3 4 22 4 25 0 35 -2 23 -4z
m2607 3 c0 -2 -16 -13 -35 -25 -19 -11 -35 -18 -35 -16 0 5 61 45 68 45 1 0 2
-2 2 -4z m2087 -68 c-3 -7 -5 -2 -5 12 0 14 2 19 5 13 2 -7 2 -19 0 -25z
m-3200 -10 c-3 -7 -5 -2 -5 12 0 14 2 19 5 13 2 -7 2 -19 0 -25z m1303 -2 c0
-2 -8 -10 -17 -17 -16 -13 -17 -12 -4 4 13 16 21 21 21 13z m1907 -63 c-3 -10
-5 -4 -5 12 0 17 2 24 5 18 2 -7 2 -21 0 -30z m-4731 -6 c1 -1 4 -22 7 -46 l5
-43 -36 6 c-20 3 -53 6 -73 6 -34 0 -36 2 -46 46 l-11 47 76 -7 c42 -4 77 -8
78 -9z m1661 -3 c-3 -3 -12 -4 -19 -1 -8 3 -5 6 6 6 11 1 17 -2 13 -5z m106
-11 c-7 -2 -19 -2 -25 0 -7 3 -2 5 12 5 14 0 19 -2 13 -5z m82 -23 c3 -6 -1
-7 -9 -4 -18 7 -21 14 -7 14 6 0 13 -4 16 -10z m800 -10 c-3 -5 -12 -10 -18
-10 -7 0 -6 4 3 10 19 12 23 12 15 0z m-710 -33 l40 -4 -41 -1 c-31 -2 -45 3
-60 21 -19 22 -19 22 1 5 11 -9 38 -18 60 -21z m212 27 c-3 -3 -12 -4 -19 -1
-8 3 -5 6 6 6 11 1 17 -2 13 -5z m2590 -16 c-3 -8 -6 -5 -6 6 -1 11 2 17 5 13
3 -3 4 -12 1 -19z m-2704 -5 c-7 -2 -21 -2 -30 0 -10 3 -4 5 12 5 17 0 24 -2
18 -5z m507 -23 c-8 -5 -19 -10 -25 -10 -5 0 -3 5 5 10 8 5 20 10 25 10 6 0 3
-5 -5 -10z m-950 -45 c80 -9 157 -20 171 -26 28 -11 59 -65 59 -103 0 -13 -8
-34 -18 -46 -19 -23 -84 -40 -617 -165 -126 -29 -460 -108 -741 -174 -281 -67
-514 -121 -517 -121 -9 0 2 190 14 245 l11 51 172 36 c521 112 647 138 677
138 144 0 409 75 510 145 52 35 71 42 99 39 19 -2 100 -11 180 -19z m3157 -12
c-3 -10 -5 -4 -5 12 0 17 2 24 5 18 2 -7 2 -21 0 -30z m-2294 20 c-7 -2 -19
-2 -25 0 -7 3 -2 5 12 5 14 0 19 -2 13 -5z m80 0 c-7 -2 -21 -2 -30 0 -10 3
-4 5 12 5 17 0 24 -2 18 -5z m115 0 c-10 -2 -28 -2 -40 0 -13 2 -5 4 17 4 22
1 32 -1 23 -4z m345 -10 c-34 -2 -93 -2 -130 0 -37 2 -9 3 62 3 72 0 102 -1
68 -3z m254 -9 c-3 -3 -12 -4 -19 -1 -8 3 -5 6 6 6 11 1 17 -2 13 -5z m56 -1
c-7 -2 -21 -2 -30 0 -10 3 -4 5 12 5 17 0 24 -2 18 -5z m114 0 c-20 -2 -52 -2
-70 0 -17 2 0 4 38 4 39 0 53 -2 32 -4z m360 -10 c-20 -2 -52 -2 -70 0 -17 2
0 4 38 4 39 0 53 -2 32 -4z m336 -10 c-23 -2 -64 -2 -90 0 -26 2 -7 3 42 3 50
0 71 -1 48 -3z m100 0 c-7 -2 -19 -2 -25 0 -7 3 -2 5 12 5 14 0 19 -2 13 -5z
m-4058 -29 c72 -8 163 -19 204 -26 l74 -11 -54 -14 c-48 -13 -74 -12 -235 6
-100 12 -195 21 -213 21 -17 0 -31 4 -31 9 0 5 -3 17 -6 26 -8 19 -11 19 261
-11z m4353 19 c-32 -2 -84 -2 -115 0 -32 2 -6 3 57 3 63 0 89 -1 58 -3z
m-4493 -144 l50 0 -35 -13 c-20 -8 -50 -17 -67 -20 -27 -6 -31 -4 -36 19 -4
23 -2 26 17 21 11 -3 44 -6 71 -7z m-2825 -129 c1173 -112 1463 -140 1925
-187 253 -25 508 -47 568 -47 l107 -1 0 -59 0 -59 -87 6 c-118 7 -564 54
-1268 133 -485 54 -1236 134 -1635 174 -210 21 -262 38 -291 92 -10 18 -8 19
18 14 15 -3 314 -33 663 -66z"/>
<path d="M5191 8700 c-62 -29 -128 -85 -162 -139 -40 -62 -38 -123 2 -74 36
43 189 168 227 185 24 11 41 25 39 31 -6 20 -60 18 -106 -3z"/>
<path d="M4879 8672 c-57 -29 -125 -90 -159 -140 -28 -43 -39 -82 -22 -82 4 0
41 34 82 76 41 42 94 89 118 106 62 43 47 74 -19 40z"/>
<path d="M5421 8629 c-64 -43 -111 -91 -136 -139 -14 -28 -14 -31 0 -37 14 -5
74 44 155 127 3 3 20 16 38 29 17 12 32 28 32 36 0 28 -32 22 -89 -16z"/>
<path d="M5747 8644 c-67 -34 -113 -66 -168 -119 -63 -60 -66 -95 -6 -64 50
26 247 173 247 184 0 24 -26 23 -73 -1z"/>
<path d="M4221 6011 c-68 -19 -17 -55 99 -71 192 -27 334 -52 412 -74 115 -33
154 -39 178 -26 75 40 -163 139 -405 169 -98 12 -245 13 -284 2z"/>
<path d="M4221 5806 c-19 -23 -6 -35 78 -72 120 -54 248 -122 349 -186 98 -61
111 -65 130 -46 22 22 13 45 -36 90 -77 72 -222 150 -362 196 -97 31 -144 36
-159 18z"/>
<path d="M3546 5102 c-3 -4 4 -9 15 -9 23 -2 25 3 4 10 -8 4 -16 3 -19 -1z"/>
<path d="M4864 7515 c-19 -19 -23 -31 -19 -48 12 -39 68 -87 144 -125 65 -32
84 -37 166 -40 118 -5 186 14 251 71 78 68 93 128 40 157 -23 12 -29 10 -58
-12 -56 -43 -96 -59 -162 -65 -93 -8 -190 11 -258 52 -31 19 -61 35 -67 35 -7
0 -23 -11 -37 -25z"/>
<path d="M4511 3710 c-26 -122 -6 -275 52 -390 50 -98 75 -87 43 20 -18 62
-52 302 -55 393 -2 47 -28 32 -40 -23z"/>
<path d="M4753 3374 c-11 -29 5 -189 26 -254 24 -76 98 -193 125 -199 22 -4
23 -9 -23 122 -17 49 -43 139 -56 200 -14 62 -28 120 -31 130 -7 21 -33 22
-41 1z"/>
<path d="M5030 3162 c0 -118 130 -336 189 -317 36 11 33 20 -92 245 -67 120
-97 143 -97 72z"/>
<path d="M3795 3709 c-4 -6 -4 -27 0 -47 10 -58 376 -1526 381 -1531 2 -3 10
1 17 9 9 10 9 11 0 6 -15 -8 -18 10 -3 19 19 12 24 -27 5 -41 -16 -12 -12 -34
75 -381 130 -519 129 -505 64 -528 -30 -11 -43 -32 -19 -32 8 0 12 4 9 9 -8
13 11 9 25 -4 10 -11 11 -10 6 5 -4 10 -2 17 5 17 23 0 38 26 34 63 -2 23 1
37 8 37 7 0 5 6 -4 13 -19 14 -26 46 -15 65 6 8 4 12 -5 10 -9 -2 -13 8 -12
34 0 20 -3 35 -8 32 -4 -3 -10 8 -14 23 -3 15 -10 43 -16 62 -8 26 -7 35 3 42
11 7 11 9 -2 9 -16 0 -46 91 -35 109 3 5 -1 21 -8 37 -11 20 -12 33 -4 47 7
14 7 17 -1 13 -6 -4 -14 11 -21 36 -6 24 -15 54 -21 67 -8 20 -7 23 8 17 17
-6 17 -5 1 8 -20 15 -25 42 -6 30 7 -4 8 -3 4 5 -4 6 -11 9 -15 6 -13 -8 -22
56 -10 71 7 9 5 15 -8 23 -11 6 -13 11 -5 11 7 0 10 5 7 10 -4 6 -11 8 -16 5
-15 -10 -10 12 6 25 14 11 19 7 16 -12 -3 -18 17 -6 26 15 8 16 8 28 1 38 -8
11 -9 11 -5 -2 3 -9 1 -22 -3 -30 -15 -23 -23 13 -10 45 8 23 13 26 24 17 11
-10 16 -8 21 9 4 12 4 24 1 27 -3 4 -6 -1 -6 -10 0 -20 -9 -21 -32 -3 -19 14
-14 28 7 20 19 -8 27 11 19 42 l-7 27 -19 -36 c-10 -21 -21 -37 -24 -37 -3 0
-2 5 1 10 3 6 3 16 -2 23 -4 6 -8 17 -8 22 -1 6 -6 9 -13 8 -7 -2 -12 4 -12
13 0 15 2 15 26 -1 14 -9 28 -14 32 -11 3 3 0 6 -6 6 -7 0 -12 4 -12 10 0 5 7
7 15 4 18 -7 18 0 4 46 -5 19 -12 46 -15 60 -3 14 -9 27 -15 28 -5 2 -6 8 -3
13 3 5 0 32 -7 59 -9 37 -18 50 -31 50 -10 0 -18 -4 -18 -10 0 -5 7 -7 15 -4
8 4 15 1 15 -5 0 -6 -6 -11 -14 -11 -8 0 -18 -5 -22 -12 -5 -7 -3 -8 6 -3 10
6 12 2 7 -16 -5 -22 -5 -22 7 -6 18 24 29 21 21 -5 -5 -18 -4 -20 4 -8 10 13
11 13 11 0 0 -33 -12 -58 -26 -53 -8 3 -14 0 -14 -7 0 -6 5 -8 10 -5 6 4 10
-9 10 -31 0 -21 3 -34 7 -31 3 4 6 20 5 37 0 16 4 30 10 30 5 0 8 -7 4 -15 -3
-8 -1 -15 5 -15 6 0 7 -4 4 -10 -3 -5 0 -10 7 -10 8 -1 7 -5 -5 -14 -10 -8
-14 -17 -8 -20 5 -3 11 -1 13 6 3 7 7 3 10 -9 6 -21 -5 -25 -28 -10 -12 7 -27
-7 -37 -35 -4 -10 1 -18 14 -21 22 -6 26 -37 4 -37 -8 0 -15 -4 -15 -10 0 -5
7 -7 15 -4 8 4 22 1 30 -6 16 -13 21 -35 6 -26 -5 4 -7 -4 -4 -16 4 -22 4 -22
-11 -4 -8 10 -13 23 -10 27 3 5 0 9 -6 9 -7 0 -9 -9 -6 -22 3 -13 -2 -5 -13
17 -18 39 -18 40 0 43 11 2 19 7 19 12 0 5 -9 7 -19 5 -13 -2 -21 4 -25 18 -9
33 -8 35 14 42 23 7 26 21 6 28 -11 4 -13 1 -9 -10 4 -10 2 -14 -4 -10 -6 4
-14 1 -16 -5 -3 -7 -6 -4 -6 6 -1 11 6 28 16 38 9 11 11 18 5 18 -7 0 -12 -4
-12 -10 0 -5 -4 -10 -10 -10 -5 0 -10 7 -10 15 0 8 5 15 11 15 5 0 7 5 4 10
-3 6 -1 10 4 10 6 0 11 5 11 12 0 6 -10 3 -21 -8 l-22 -19 7 30 c4 19 3 25 -2
17 -7 -10 -11 -7 -14 12 -4 21 -3 24 8 15 9 -7 14 -7 14 -1 0 5 -6 15 -14 21
-7 6 -24 50 -36 97 -20 73 -21 87 -9 96 11 8 10 9 -3 4 -12 -4 -18 0 -19 12
-1 9 -3 29 -5 45 -1 15 1 27 7 27 5 0 9 -5 9 -12 0 -6 3 -8 6 -5 4 4 2 13 -5
21 -9 11 -8 15 3 19 9 4 12 14 9 28 -5 17 -3 20 7 14 9 -5 11 -4 6 3 -4 7 -3
12 2 12 5 0 13 -10 19 -22 6 -15 12 -18 17 -10 4 7 3 12 -2 12 -6 0 -8 10 -6
23 2 12 2 16 -2 9 -3 -6 -10 -9 -15 -6 -6 3 -16 0 -24 -6 -12 -10 -15 -10 -15
2 0 16 19 38 33 38 4 0 5 -6 1 -12 -5 -10 -4 -10 5 -2 16 15 3 74 -18 74 -10
0 -12 3 -5 8 12 7 10 59 -2 71 -4 3 -4 -7 -2 -22 5 -27 -17 -65 -30 -52 -3 3
0 11 6 17 7 7 12 17 12 22 0 6 -7 0 -16 -13 -15 -21 -15 -24 0 -39 10 -10 16
-12 16 -4 0 6 7 9 16 5 15 -6 15 -8 -2 -21 -16 -12 -16 -14 -2 -9 23 8 33 -9
11 -17 -11 -5 -23 0 -32 11 -13 17 -13 17 -7 0 4 -12 2 -16 -7 -12 -6 4 -5 1
3 -7 8 -7 14 -26 14 -43 -1 -16 4 -33 10 -37 6 -4 0 -8 -15 -8 -24 0 -27 5
-48 98 -13 53 -25 105 -28 115 -2 9 0 17 5 17 15 0 33 -26 24 -35 -4 -5 -2 -5
5 -2 6 4 13 2 15 -5 3 -8 7 -6 11 5 4 10 2 16 -6 14 -7 -1 -11 4 -9 11 1 6 -5
12 -14 12 -10 0 -14 6 -11 15 4 8 2 17 -3 20 -6 4 -10 -1 -10 -10 0 -9 -5 -13
-11 -9 -6 3 -9 15 -6 25 3 11 1 17 -4 13 -5 -3 -9 13 -9 36 0 29 4 39 12 34 7
-4 8 -3 4 5 -4 6 -11 9 -16 6 -5 -3 -11 -1 -15 5 -3 5 3 10 14 10 12 0 21 7
21 15 0 18 -12 19 -27 4 -7 -7 -14 -1 -22 22 -6 18 -9 34 -6 37 3 3 0 11 -6
18 -5 7 -12 36 -14 65 -2 30 -8 55 -15 57 -8 3 -8 8 1 18 9 11 9 14 0 14 -7 0
-10 4 -7 9 4 5 1 11 -5 13 -6 2 -11 22 -12 45 -1 22 -5 39 -9 36 -10 -5 -10
11 -1 20 10 10 10 56 0 50 -5 -3 -7 -14 -4 -24 3 -11 2 -19 -3 -19 -4 0 -10
17 -13 38 -3 20 -9 51 -12 69 l-7 32 48 4 49 3 -47 2 c-26 1 -50 -3 -53 -9z
m465 -1454 c0 -8 -4 -15 -10 -15 -5 0 -7 7 -4 15 4 8 8 15 10 15 2 0 4 -7 4
-15z"/>
<path d="M3882 3695 c4 -4 3 -13 -2 -20 -7 -8 -5 -12 5 -12 18 0 20 23 3 33
-7 4 -10 4 -6 -1z"/>
<path d="M3870 3645 c0 0 9 -8 20 -18 19 -16 20 -16 20 1 0 11 -8 18 -20 18
-11 0 -20 -1 -20 -1z"/>
<path d="M3860 3609 c0 -5 5 -7 10 -4 6 3 10 8 10 11 0 2 -4 4 -10 4 -5 0 -10
-5 -10 -11z"/>
<path d="M3905 3590 c3 -5 8 -10 11 -10 2 0 4 5 4 10 0 6 -5 10 -11 10 -5 0
-7 -4 -4 -10z"/>
<path d="M3862 3563 c2 -9 10 -18 18 -20 12 -4 13 -3 1 5 -7 5 -10 15 -7 21 4
6 2 11 -4 11 -6 0 -10 -8 -8 -17z"/>
<path d="M3900 3560 c5 -10 14 -20 18 -22 5 -1 12 -15 16 -30 5 -24 3 -26 -15
-23 -12 3 -29 0 -38 -5 -12 -6 -6 -8 19 -7 30 2 35 -1 32 -18 -2 -16 -1 -17 7
-5 14 19 14 0 1 -34 -10 -26 -32 -36 -29 -13 3 28 -1 41 -11 31 -6 -6 -8 -18
-4 -28 8 -21 44 -42 44 -26 0 6 4 9 8 6 4 -2 14 -1 22 5 13 7 12 9 -2 9 -11 0
-18 7 -18 18 0 15 2 15 10 2 8 -11 9 -7 4 15 -4 17 -11 32 -16 33 -4 2 -6 8
-3 13 11 16 -17 87 -36 92 -15 4 -17 2 -9 -13z"/>
<path d="M3898 3523 c7 -3 16 -2 19 1 4 3 -2 6 -13 5 -11 0 -14 -3 -6 -6z"/>
<path d="M3875 3500 c-13 -6 -15 -9 -5 -9 8 0 22 4 30 9 18 12 2 12 -25 0z"/>
<path d="M3888 3453 c7 -3 16 -2 19 1 4 3 -2 6 -13 5 -11 0 -14 -3 -6 -6z"/>
<path d="M3951 3371 c-8 -5 -10 -14 -6 -21 5 -8 4 -11 -2 -7 -6 4 -16 0 -23
-8 -10 -11 -7 -19 14 -38 23 -21 24 -26 11 -37 -8 -7 -15 -20 -14 -29 0 -12 2
-11 9 4 9 24 39 52 41 39 1 -5 4 2 8 16 7 24 -6 90 -18 90 -3 0 -12 -4 -20 -9z
m10 -55 c0 -6 4 -2 8 8 7 18 8 18 14 3 3 -9 2 -17 -4 -17 -6 0 -8 -4 -4 -9 3
-5 1 -12 -5 -16 -5 -3 -10 1 -10 10 0 9 -9 19 -20 22 -11 3 -17 9 -15 14 7 11
35 0 36 -15z"/>
<path d="M3920 3269 c0 -5 5 -7 10 -4 6 3 10 8 10 11 0 2 -4 4 -10 4 -5 0 -10
-5 -10 -11z"/>
<path d="M3996 3264 c-3 -9 -4 -20 0 -25 3 -5 1 -9 -5 -9 -5 0 -13 5 -16 10
-4 6 -11 8 -16 4 -16 -9 1 -24 27 -24 14 0 22 -4 19 -10 -3 -5 -1 -10 4 -10
19 0 12 -28 -9 -33 -17 -4 -19 -2 -14 21 4 15 3 24 -2 19 -14 -14 -14 -45 1
-57 17 -14 21 -35 5 -25 -5 3 -18 2 -27 -4 -14 -8 -11 -9 15 -6 20 2 32 -1 32
-8 0 -7 4 -6 10 3 6 9 10 10 10 3 0 -6 3 -19 7 -29 5 -13 3 -15 -7 -9 -9 6
-11 4 -5 -5 6 -10 4 -12 -8 -7 -10 3 -17 2 -17 -3 0 -5 14 -8 30 -7 27 2 30 5
25 26 -3 13 -9 36 -12 52 -5 25 -7 27 -17 13 -11 -14 -13 -14 -27 2 -12 16
-12 17 3 11 23 -8 32 22 17 59 -7 16 -11 37 -10 47 3 21 -5 22 -13 1z"/>
<path d="M3970 3096 c0 -2 9 -6 20 -9 11 -3 18 -1 14 4 -5 9 -34 13 -34 5z"/>
<path d="M2226 2946 c-60 -22 -88 -48 -119 -107 -27 -50 -29 -60 -25 -145 3
-82 8 -100 42 -169 66 -134 198 -240 314 -253 26 -2 44 -1 40 3 -4 4 -20 9
-35 10 -72 5 -68 3 -49 24 9 10 16 22 14 27 -2 5 2 10 7 11 6 1 9 -9 7 -22 -4
-31 8 -32 31 -4 18 20 18 21 -3 14 -20 -6 -21 -5 -10 15 10 18 14 20 22 9 8
-11 8 -10 4 4 -3 10 -6 24 -6 30 -1 7 -6 3 -13 -8 -14 -23 -37 -26 -60 -7 -12
10 -17 10 -23 1 -5 -8 -3 -9 6 -4 10 6 12 4 7 -9 -4 -10 -1 -19 8 -22 8 -4 12
-10 9 -15 -3 -5 -10 -7 -15 -4 -5 3 -6 -1 -3 -9 8 -22 -12 -20 -52 5 -23 14
-31 25 -27 36 5 13 2 15 -11 10 -13 -5 -27 1 -45 20 -14 14 -20 23 -13 19 18
-10 38 4 21 15 -8 5 -9 9 -4 9 6 0 12 11 13 25 1 18 -3 25 -16 25 -11 0 -13
-3 -6 -8 7 -4 8 -15 3 -28 -9 -27 -25 -38 -34 -24 -3 5 -2 10 3 10 22 0 5 34
-23 46 -30 12 -42 25 -43 48 0 5 -6 12 -12 16 -7 4 -13 19 -13 34 -1 14 -5 26
-9 26 -5 0 -8 9 -8 21 0 14 5 19 14 16 10 -4 13 1 11 19 -1 14 3 24 10 24 17
0 25 -23 15 -40 -12 -20 0 -40 24 -39 19 0 19 1 -4 10 -18 7 -21 12 -12 18 9
5 11 17 6 34 -5 21 -2 27 10 27 9 0 16 4 16 9 0 4 -20 2 -45 -7 -25 -8 -45
-19 -45 -24 0 -5 5 -6 10 -3 6 3 10 1 10 -4 0 -6 -7 -11 -15 -11 -20 0 -15 47
6 62 11 8 11 9 -3 4 -23 -7 -24 33 -2 97 15 45 38 59 27 16 -4 -12 0 -25 8
-30 11 -7 11 -9 1 -9 -7 0 -10 -5 -6 -11 4 -8 9 -7 15 2 4 7 3 19 -2 26 -6 7
-8 17 -4 23 4 6 2 17 -4 24 -8 9 -5 18 12 34 12 11 29 22 37 24 8 2 18 8 22
13 5 6 8 4 8 -5 0 -9 8 -16 19 -16 12 0 17 6 14 17 -7 24 54 33 99 15 20 -9
38 -13 41 -9 9 9 57 -26 57 -41 0 -8 11 -16 25 -18 13 -3 22 -1 19 3 -15 25
17 2 61 -43 28 -28 42 -48 32 -44 -11 3 -16 2 -12 -4 3 -6 12 -10 19 -10 8 0
19 -7 26 -15 11 -13 10 -18 -6 -31 -18 -14 -18 -15 3 -5 20 10 23 7 39 -36 14
-35 15 -48 6 -51 -8 -2 -4 -10 9 -21 20 -16 20 -18 6 -24 -10 -4 -17 -2 -17 4
0 6 -4 7 -10 4 -5 -3 -10 -1 -10 4 0 6 -6 11 -14 11 -8 0 -12 9 -11 25 2 14
-2 28 -7 32 -7 4 -8 1 -4 -6 5 -8 2 -11 -9 -9 -10 2 -20 -4 -22 -12 -3 -11 -2
-11 4 -3 11 16 27 3 30 -23 1 -13 -6 -26 -20 -33 -17 -9 -18 -10 -2 -5 24 8
29 8 79 1 l38 -6 -6 32 c-11 60 -75 172 -128 228 -96 100 -246 150 -342 115z
m264 -62 c0 -2 -7 -4 -15 -4 -8 0 -15 4 -15 10 0 5 7 7 15 4 8 -4 15 -8 15
-10z m-290 -424 c11 -7 11 -10 2 -10 -7 0 -10 -4 -7 -10 3 -5 4 -10 1 -10 -3
0 -10 9 -16 20 -12 22 -4 25 20 10z"/>
<path d="M3996 2951 c-8 -12 3 -61 14 -61 9 0 8 56 -2 65 -3 3 -9 2 -12 -4z"/>
<path d="M2266 2918 c3 -4 11 -5 19 -1 21 7 19 12 -4 10 -11 0 -18 -5 -15 -9z"/>
<path d="M2310 2911 c0 -6 -7 -11 -16 -11 -14 0 -14 -1 0 -16 20 -19 12 -36
-12 -27 -14 6 -15 4 -5 -8 7 -8 10 -29 8 -47 -2 -17 0 -34 6 -37 5 -4 9 10 9
29 0 20 0 39 1 44 1 12 21 32 31 32 6 0 4 -7 -3 -17 -13 -15 -12 -15 10 -4 16
9 20 16 12 20 -9 6 -8 11 2 20 12 9 16 8 21 -5 3 -9 3 -21 0 -27 -5 -8 -4 -9
4 -2 12 11 5 55 -8 55 -4 0 -13 -7 -20 -15 -14 -17 -40 -20 -40 -4 0 5 5 7 10
4 6 -3 10 -2 10 4 0 5 -4 13 -10 16 -5 3 -10 1 -10 -4z"/>
<path d="M2397 2904 c-3 -3 -2 -17 4 -31 11 -30 11 -36 0 -29 -4 3 -18 -6 -31
-19 -18 -19 -26 -22 -37 -13 -11 8 -12 7 -7 -6 4 -10 13 -15 20 -12 17 6 43
-30 39 -52 -2 -9 -4 -20 -4 -24 -1 -5 -5 -8 -11 -8 -5 0 -7 8 -4 18 5 14 4 14
-6 -2 -15 -22 1 -37 33 -30 11 2 33 -4 49 -12 17 -9 27 -11 24 -6 -3 6 -3 12
1 15 5 2 2 2 -6 0 -7 -2 -20 2 -27 8 -8 6 -21 9 -29 5 -24 -9 -13 44 12 58 19
10 20 12 5 26 -14 13 -15 12 -9 -3 9 -23 -15 -22 -37 2 -16 17 -16 19 1 26 10
5 21 8 25 7 4 -1 10 8 13 20 6 16 9 18 16 7 7 -11 9 -10 9 4 0 9 -7 17 -15 17
-14 0 -19 12 -16 33 1 9 -4 9 -12 1z"/>
<path d="M2174 2885 c-10 -8 -14 -15 -7 -15 6 0 15 5 18 11 5 6 12 4 20 -8 7
-10 11 -21 9 -25 -2 -4 0 -9 6 -13 5 -3 10 2 10 12 1 17 1 16 12 -1 8 -15 8
-21 0 -24 -8 -2 -7 -9 4 -19 8 -8 18 -12 21 -9 13 13 11 37 -3 43 -9 3 -12 13
-9 23 5 15 2 17 -14 13 -14 -3 -23 0 -27 11 -8 20 -15 20 -40 1z"/>
<path d="M4010 2869 c0 -5 5 -7 10 -4 6 3 10 8 10 11 0 2 -4 4 -10 4 -5 0 -10
-5 -10 -11z"/>
<path d="M2190 2844 c0 -8 -4 -13 -9 -10 -5 3 -12 -1 -15 -9 -4 -13 -2 -14 14
-5 17 9 29 40 15 40 -3 0 -5 -7 -5 -16z"/>
<path d="M2455 2840 c-3 -5 0 -7 8 -4 8 3 20 -2 27 -11 14 -17 36 -20 44 -6 4
5 -2 7 -12 4 -10 -2 -24 3 -31 11 -15 18 -27 20 -36 6z"/>
<path d="M2205 2810 c3 -5 8 -10 11 -10 2 0 4 5 4 10 0 6 -5 10 -11 10 -5 0
-7 -4 -4 -10z"/>
<path d="M2457 2784 c31 -26 39 -28 48 -14 4 6 -1 7 -11 3 -13 -5 -15 -3 -9 7
5 9 4 11 -4 6 -6 -4 -14 -1 -17 7 -2 7 -12 14 -20 14 -10 0 -5 -8 13 -23z"/>
<path d="M4103 2787 c-8 -17 -7 -28 3 -42 8 -10 14 -14 14 -9 0 6 -5 15 -11
21 -7 7 -6 15 5 26 9 9 12 18 8 21 -5 3 -14 -5 -19 -17z"/>
<path d="M2526 2774 c-5 -14 -4 -15 9 -4 17 14 19 20 6 20 -5 0 -12 -7 -15
-16z"/>
<path d="M2114 2764 c1 -12 10 -32 19 -45 12 -15 16 -18 13 -7 -3 10 2 22 12
27 16 10 16 10 0 11 -10 0 -18 -6 -18 -12 -1 -7 -7 1 -15 17 -10 22 -13 24
-11 9z"/>
<path d="M2160 2776 c0 -2 7 -7 16 -10 8 -3 12 -2 9 4 -6 10 -25 14 -25 6z"/>
<path d="M2201 2760 c-13 -11 -20 -20 -15 -20 4 0 16 8 26 17 17 15 20 15 28
3 6 -8 10 -21 10 -29 0 -11 -3 -11 -14 -1 -11 8 -20 9 -33 1 -14 -8 -15 -11
-3 -11 8 -1 23 -3 33 -5 9 -2 22 5 27 15 12 23 13 33 1 26 -5 -3 -11 1 -15 9
-7 20 -16 19 -45 -5z"/>
<path d="M2340 2770 c-9 -6 -10 -10 -3 -10 6 0 15 5 18 10 8 12 4 12 -15 0z"/>
<path d="M4120 2770 c0 -5 5 -10 11 -10 5 0 7 5 4 10 -3 6 -8 10 -11 10 -2 0
-4 -4 -4 -10z"/>
<path d="M2444 2759 c-4 -8 -3 -9 4 -5 7 4 12 3 12 -3 0 -16 -20 -23 -34 -12
-9 8 -13 7 -13 -2 0 -7 11 -14 24 -15 13 -1 23 3 23 8 0 6 5 10 11 10 5 0 8
-4 4 -9 -3 -5 -1 -12 4 -15 12 -8 22 7 13 19 -18 25 -40 36 -48 24z"/>
<path d="M2572 2744 c-8 -9 -9 -14 -2 -14 6 0 8 -4 5 -10 -3 -5 -2 -10 2 -10
5 0 14 9 21 21 8 12 9 18 4 15 -6 -3 -12 -2 -14 3 -1 5 -9 3 -16 -5z"/>
<path d="M4130 2735 c0 -8 4 -15 10 -15 5 0 7 7 4 15 -4 8 -8 15 -10 15 -2 0
-4 -7 -4 -15z"/>
<path d="M2277 2734 c-9 -10 -9 -34 1 -32 16 3 42 -15 43 -31 0 -9 5 -3 10 14
5 19 5 33 -2 40 -7 7 -8 5 -4 -7 4 -10 3 -18 -1 -18 -14 0 -31 14 -35 28 -3 7
-8 10 -12 6z"/>
<path d="M2522 2715 c1 -12 8 -27 15 -34 15 -14 17 -3 3 19 -5 9 -5 19 0 25 7
8 5 12 -5 12 -9 0 -14 -9 -13 -22z"/>
<path d="M4065 2715 c12 -9 19 -25 17 -37 -4 -20 -3 -20 13 -5 9 10 20 15 24
13 4 -3 8 1 8 9 0 16 -1 16 -33 20 -12 1 -28 5 -35 9 -8 4 -5 0 6 -9z"/>
<path d="M2626 2687 c1 -12 3 -28 3 -34 1 -7 5 -13 9 -13 10 0 3 58 -7 65 -4
2 -6 -6 -5 -18z"/>
<path d="M4141 2705 c1 -19 18 -51 18 -35 0 8 -4 22 -9 30 -5 8 -9 11 -9 5z"/>
<path d="M2210 2690 c9 -6 11 -10 3 -10 -7 0 -10 -7 -6 -17 6 -15 7 -14 13 3
9 22 4 34 -13 34 -7 0 -6 -4 3 -10z"/>
<path d="M2240 2691 c0 -6 4 -13 10 -16 6 -3 7 1 4 9 -7 18 -14 21 -14 7z"/>
<path d="M2500 2691 c0 -10 19 -25 25 -20 1 2 -3 10 -11 17 -8 7 -14 8 -14 3z"/>
<path d="M2578 2688 c5 -5 16 -8 23 -6 8 3 3 7 -10 11 -17 4 -21 3 -13 -5z"/>
<path d="M2273 2670 c-1 -11 2 -18 8 -15 11 7 12 35 1 35 -4 0 -8 -9 -9 -20z"/>
<path d="M2371 2677 c-14 -14 -14 -27 0 -27 5 0 7 5 4 10 -3 6 1 10 10 10 10
0 13 -5 9 -12 -6 -10 -5 -10 8 -1 8 7 19 10 24 6 5 -4 3 -1 -3 7 -16 18 -38
21 -52 7z"/>
<path d="M2434 2656 c-6 -6 -14 -25 -19 -41 -7 -27 -8 -28 -15 -10 -5 11 -9
15 -9 8 -1 -12 -59 -36 -70 -29 -4 3 -7 -4 -8 -14 -1 -13 3 -17 13 -13 8 3 14
10 14 15 0 6 7 8 15 4 8 -3 15 -1 15 4 0 6 7 10 15 10 21 0 19 -19 -2 -26 -49
-16 -73 -27 -73 -34 0 -5 9 -6 20 -3 11 3 20 9 20 14 0 5 4 9 9 9 5 0 9 -6 8
-12 -1 -48 23 -70 49 -44 18 19 18 26 -1 26 -8 0 -15 -7 -15 -16 0 -8 -5 -12
-11 -9 -6 4 -8 14 -5 22 3 8 1 11 -4 8 -19 -12 -10 12 14 34 15 14 26 19 31
12 3 -6 12 -11 18 -11 7 0 6 4 -3 10 -17 11 -17 11 33 14 21 1 37 -2 37 -8 0
-6 4 -5 9 3 5 7 14 10 20 7 6 -4 11 -4 11 1 -1 13 -40 56 -46 51 -3 -3 2 -13
11 -22 9 -9 13 -16 8 -17 -35 -5 -49 -2 -53 9 -4 9 -11 7 -28 -8 -22 -21 -27
-16 -16 14 3 9 9 14 13 12 4 -3 13 0 21 6 12 8 12 9 -2 4 -10 -3 -18 -1 -18 4
0 5 8 10 18 12 14 3 14 5 2 10 -8 3 -20 0 -26 -6z"/>
<path d="M4106 2655 c-21 -9 -24 -13 -13 -18 9 -3 17 -1 20 6 2 8 9 6 21 -6 9
-9 14 -22 10 -28 -5 -8 -3 -9 6 -4 10 6 12 4 7 -8 -3 -10 -2 -17 3 -17 13 0
22 18 11 24 -5 3 -7 16 -4 29 4 17 3 19 -6 7 -8 -12 -11 -11 -18 6 -7 19 -11
19 -37 9z"/>
<path d="M2235 2638 c2 -9 -4 -19 -12 -22 -8 -3 -11 -11 -7 -17 5 -9 11 -7 20
5 9 13 13 14 17 4 2 -7 4 0 4 16 0 17 -2 23 -7 16 -6 -10 -9 -10 -13 1 -2 8
-3 6 -2 -3z"/>
<path d="M2296 2652 c-3 -6 -1 -14 5 -17 15 -10 25 3 12 16 -7 7 -13 7 -17 1z"/>
<path d="M2333 2645 c-3 -9 -3 -19 1 -22 3 -4 6 -1 6 6 0 7 4 9 10 6 6 -3 7 1
4 9 -8 20 -13 20 -21 1z"/>
<path d="M2537 2645 c-4 -8 -2 -17 3 -20 6 -4 10 3 10 14 0 25 -6 27 -13 6z"/>
<path d="M2180 2628 c0 -4 7 -8 15 -8 8 0 15 4 15 8 0 5 -7 9 -15 9 -8 0 -15
-4 -15 -9z"/>
<path d="M2375 2629 c-4 -6 -4 -13 -1 -16 3 -4 6 -1 6 5 0 6 8 13 18 15 15 4
15 5 0 6 -9 0 -20 -4 -23 -10z"/>
<path d="M2274 2613 c2 -10 -2 -21 -8 -25 -8 -5 -7 -11 2 -20 9 -9 12 -9 12 4
0 17 19 28 53 29 21 0 21 1 2 8 -11 5 -25 4 -32 -1 -9 -8 -13 -6 -13 6 0 9 -4
16 -9 16 -5 0 -8 -8 -7 -17z"/>
<path d="M4090 2605 c-8 -9 -8 -15 -2 -15 12 0 26 19 19 26 -2 2 -10 -2 -17
-11z"/>
<path d="M4120 2584 c0 -8 -4 -13 -9 -9 -5 3 -12 1 -15 -4 -4 -5 2 -8 11 -7
16 3 33 36 19 36 -3 0 -6 -7 -6 -16z"/>
<path d="M2140 2578 c0 -14 18 -17 28 -5 8 10 6 13 -9 13 -10 0 -19 -4 -19 -8z"/>
<path d="M2206 2573 c2 -6 -4 -13 -11 -15 -10 -2 -7 -7 9 -14 21 -10 23 -9 19
10 -4 18 -1 16 22 -9 l26 -30 -38 -17 c-34 -15 -35 -17 -8 -11 17 3 34 9 39
14 5 4 14 6 20 5 6 -2 8 -1 4 1 -5 3 -8 13 -8 24 0 10 -6 19 -14 19 -7 0 -19
7 -26 15 -7 8 -16 13 -20 10 -5 -3 -10 -2 -13 2 -2 5 -2 3 -1 -4z"/>
<path d="M2453 2555 c-17 -18 -13 -54 6 -47 9 3 12 1 7 -6 -12 -20 5 -13 26
11 16 17 18 18 14 4 -3 -10 -2 -15 3 -12 5 3 12 1 16 -5 6 -9 -7 -14 -27 -11
-4 0 -3 -10 3 -23 11 -23 30 -28 45 -13 4 4 -2 7 -14 7 -12 0 -22 5 -22 10 0
6 7 10 15 10 17 0 19 12 5 26 -6 6 -8 18 -5 27 6 13 9 13 27 -5 17 -17 18 -22
7 -29 -11 -8 -10 -12 5 -24 19 -15 19 -15 1 -28 -14 -11 -15 -16 -5 -22 9 -5
11 -4 6 3 -4 7 -2 12 3 12 6 0 11 -6 12 -12 0 -7 4 -4 9 7 6 15 3 24 -11 36
-17 16 -18 17 -1 24 15 6 15 8 -5 25 -13 10 -23 23 -23 29 0 16 -20 13 -26 -4
-4 -8 -10 -13 -14 -10 -5 3 -11 1 -15 -5 -10 -17 -45 -12 -39 5 4 8 10 12 15
9 5 -3 9 -1 9 5 0 16 -14 20 -27 6z"/>
<path d="M2605 2561 c-3 -5 -2 -12 3 -15 5 -3 9 1 9 9 0 17 -3 19 -12 6z"/>
<path d="M2685 2551 c-3 -5 -1 -13 5 -16 11 -6 6 -87 -7 -130 -16 -52 -98
-125 -123 -110 -6 3 -10 1 -10 -4 0 -6 -13 -11 -30 -11 -16 0 -30 -4 -30 -9 0
-12 89 6 116 24 67 43 104 122 104 217 0 44 -11 61 -25 39z"/>
<path d="M2630 2539 c0 -5 5 -7 10 -4 6 3 10 8 10 11 0 2 -4 4 -10 4 -5 0 -10
-5 -10 -11z"/>
<path d="M4108 2542 c7 -5 10 -15 8 -23 -3 -8 6 -27 20 -44 l26 -30 -18 35
c-10 19 -18 41 -18 49 -1 8 -8 16 -16 18 -11 4 -12 2 -2 -5z"/>
<path d="M2235 2520 c-3 -5 -1 -10 4 -10 6 0 11 5 11 10 0 6 -2 10 -4 10 -3 0
-8 -4 -11 -10z"/>
<path d="M2607 2519 c7 -7 15 -10 18 -7 3 3 -2 9 -12 12 -14 6 -15 5 -6 -5z"/>
<path d="M2195 2513 c-11 -3 -24 -10 -30 -15 -12 -13 35 0 50 13 5 5 7 8 5 8
-3 -1 -14 -3 -25 -6z"/>
<path d="M2312 2498 c-16 -21 -26 -62 -13 -54 6 4 11 15 11 25 0 9 5 22 12 29
7 7 9 12 6 12 -3 0 -10 -6 -16 -12z"/>
<path d="M2349 2483 c5 -10 9 -22 10 -28 2 -15 44 -11 49 5 3 12 2 12 -6 2 -7
-11 -12 -10 -26 3 -9 9 -16 21 -16 26 0 5 -5 9 -10 9 -7 0 -7 -6 -1 -17z"/>
<path d="M2671 2484 c0 -11 3 -14 6 -6 3 7 2 16 -1 19 -3 4 -6 -2 -5 -13z"/>
<path d="M2275 2479 c-4 -6 -5 -12 -2 -15 2 -3 7 2 10 11 7 17 1 20 -8 4z"/>
<path d="M2420 2480 c0 -5 7 -7 15 -4 8 4 15 8 15 10 0 2 -7 4 -15 4 -8 0 -15
-4 -15 -10z"/>
<path d="M2320 2471 c0 -6 4 -12 8 -15 5 -3 9 1 9 9 0 8 -4 15 -9 15 -4 0 -8
-4 -8 -9z"/>
<path d="M2660 2446 c0 -8 4 -17 9 -20 5 -4 7 3 4 14 -6 23 -13 26 -13 6z"/>
<path d="M2475 2415 c0 -18 3 -31 8 -28 4 2 7 15 7 28 0 13 -3 26 -7 28 -5 3
-8 -10 -8 -28z"/>
<path d="M2303 2420 c-8 -12 -9 -21 -3 -25 6 -3 10 1 10 10 0 11 5 15 14 12
10 -4 13 -1 9 9 -7 19 -16 18 -30 -6z"/>
<path d="M2381 2420 c-18 -11 0 -19 23 -10 16 5 17 8 4 12 -8 4 -21 3 -27 -2z"/>
<path d="M2516 2413 c-6 -14 -5 -15 5 -6 7 7 10 15 7 18 -3 3 -9 -2 -12 -12z"/>
<path d="M2615 2409 c-4 -6 -5 -12 -2 -15 2 -3 7 2 10 11 7 17 1 20 -8 4z"/>
<path d="M2416 2401 c-12 -5 -15 -10 -9 -14 6 -4 16 0 23 8 14 17 13 17 -14 6z"/>
<path d="M2542 2390 c0 -14 2 -19 5 -12 2 6 2 18 0 25 -3 6 -5 1 -5 -13z"/>
<path d="M2322 2384 c-7 -8 -8 -14 -3 -14 10 0 25 19 20 25 -2 1 -10 -3 -17
-11z"/>
<path d="M2502 2383 c-6 -2 -9 -9 -6 -14 3 -6 0 -18 -8 -27 -12 -15 -11 -16 5
-3 9 7 17 20 17 28 0 8 5 11 10 8 6 -3 10 -1 10 4 0 12 -7 13 -28 4z"/>
<path d="M2560 2377 c0 -2 9 -14 20 -27 19 -22 20 -22 20 -3 0 12 -7 24 -16
27 -18 7 -24 8 -24 3z"/>
<path d="M2613 2351 c1 -15 4 -17 14 -9 7 5 10 14 7 19 -10 16 -23 9 -21 -10z"/>
<path d="M2340 2339 c0 -11 4 -18 10 -14 5 3 7 12 3 20 -7 21 -13 19 -13 -6z"/>
<path d="M2521 2331 c-7 -5 -12 -14 -10 -20 3 -7 11 -3 21 9 18 21 13 26 -11
11z"/>
<path d="M4274 2172 c-5 -4 -11 -17 -11 -30 -2 -19 1 -21 12 -12 10 8 14 8 18
-2 4 -8 6 -7 6 5 1 10 -6 17 -16 17 -15 0 -16 2 -3 10 8 5 12 11 9 14 -2 3 -9
2 -15 -2z"/>
<path d="M4250 2095 c-19 -23 -8 -25 14 -4 11 11 15 19 9 19 -6 0 -16 -7 -23
-15z"/>
<path d="M4286 2095 c-3 -8 -1 -15 4 -15 6 0 10 -5 10 -11 0 -5 -4 -7 -10 -4
-5 3 -10 1 -10 -4 0 -6 5 -11 11 -11 5 0 7 -5 4 -10 -4 -6 -11 -7 -17 -4 -7 4
-8 2 -4 -5 9 -14 -12 -43 -25 -35 -5 3 -6 10 -3 16 5 7 2 8 -5 3 -9 -5 -10
-10 -2 -18 14 -14 54 -20 46 -7 -7 12 12 50 26 50 6 0 8 -4 5 -8 -2 -4 0 -14
5 -22 8 -11 9 -7 4 15 -3 17 -9 42 -12 58 -6 30 -18 35 -27 12z"/>
<path d="M4252 2064 c-7 -8 -8 -14 -3 -14 10 0 25 19 20 25 -2 1 -10 -3 -17
-11z"/>
<path d="M4304 1970 c0 -11 4 -20 8 -20 4 0 8 6 8 14 0 8 6 17 13 19 6 3 3 6
-8 6 -14 1 -21 -5 -21 -19z"/>
<path d="M4334 1951 c3 -5 -1 -14 -8 -20 -10 -8 -16 -9 -21 -1 -9 15 -25 12
-25 -5 0 -12 8 -14 33 -10 26 5 30 4 20 -6 -7 -7 -13 -18 -13 -23 0 -6 7 -3
14 7 13 17 14 16 19 -2 3 -13 -1 -21 -12 -24 -12 -4 -12 -5 4 -6 18 -1 17 -3
-5 -18 -14 -10 -34 -17 -45 -16 -13 2 -15 0 -5 -4 8 -3 22 -11 30 -17 8 -5 12
-6 8 -2 -13 15 13 38 28 25 16 -13 7 -39 -15 -39 -9 0 -3 -7 14 -15 21 -11 31
-24 33 -41 1 -14 -2 -23 -8 -19 -6 3 -10 2 -10 -4 0 -5 5 -13 10 -16 6 -3 10
-1 10 5 0 6 4 9 9 6 18 -11 -3 50 -23 67 -15 13 -16 17 -5 14 13 -4 15 -1 12
14 -3 11 -9 21 -13 24 -5 3 -6 13 -3 23 2 10 -1 31 -8 47 -7 17 -11 38 -10 48
1 9 -3 17 -9 17 -6 0 -9 -4 -6 -9z"/>
<path d="M4267 1893 c-8 -13 5 -29 31 -35 12 -4 22 -5 22 -3 0 13 -14 35 -22
35 -5 0 -6 -6 -3 -12 4 -7 0 -5 -8 5 -8 10 -17 14 -20 10z"/>
<path d="M4295 1779 c-11 -16 -1 -19 13 -3 7 8 8 14 3 14 -5 0 -13 -5 -16 -11z"/>
<path d="M4307 1749 c-3 -10 0 -20 7 -22 8 -3 7 -9 -4 -23 -11 -15 -11 -16 0
-6 17 14 34 16 25 2 -3 -5 -2 -10 3 -10 5 0 10 10 10 23 0 12 1 28 3 36 3 8
-5 14 -18 16 -13 1 -23 -5 -26 -16z m37 -4 c-4 -8 -11 -12 -16 -9 -6 4 -5 10
3 15 19 12 19 11 13 -6z"/>
<path d="M4326 1668 c3 -4 -1 -8 -8 -8 -7 0 -2 -7 10 -16 12 -8 22 -23 23 -32
0 -9 6 -2 13 17 10 29 13 31 25 17 7 -9 17 -13 22 -10 5 3 -1 14 -13 24 -22
17 -23 17 -36 -1 -7 -11 -18 -17 -23 -13 -7 4 -6 10 0 18 8 9 7 13 -4 13 -8 0
-12 -4 -9 -9z"/>
<path d="M4320 1620 c0 -5 5 -10 11 -10 5 0 7 5 4 10 -3 6 -8 10 -11 10 -2 0
-4 -4 -4 -10z"/>
<path d="M4406 1622 c-3 -5 2 -22 10 -38 15 -27 18 -36 28 -84 3 -11 8 -25 12
-31 4 -8 -1 -9 -17 -5 -13 3 -18 3 -11 0 6 -3 12 -10 12 -15 0 -6 -8 -5 -20 1
-14 7 -20 7 -20 0 0 -5 5 -10 11 -10 5 0 7 -4 4 -10 -4 -7 3 -7 20 0 22 8 27
7 35 -13 15 -38 11 -5 -12 90 -12 51 -25 90 -29 87 -4 -2 -5 5 -2 16 5 19 -11
28 -21 12z"/>
<path d="M4370 1595 c-8 -10 -9 -19 -1 -32 10 -17 10 -17 11 0 0 10 5 15 10
12 6 -3 10 -14 10 -24 0 -10 8 -25 18 -32 15 -13 16 -12 4 3 -8 9 -11 21 -8
26 3 6 -1 15 -9 22 -8 7 -13 16 -10 20 10 16 -13 20 -25 5z"/>
<path d="M4346 1545 c4 -8 11 -15 16 -15 6 0 5 6 -2 15 -7 8 -14 15 -16 15 -2
0 -1 -7 2 -15z"/>
<path d="M4368 1526 c-24 -18 -23 -30 2 -23 14 4 20 0 20 -11 0 -15 2 -15 10
-2 7 10 5 18 -5 26 -8 6 -12 14 -8 17 11 12 -1 7 -19 -7z"/>
<path d="M1209 1492 c23 -46 46 -66 62 -56 7 4 9 3 5 -4 -7 -12 9 -18 69 -27
30 -4 35 -3 19 4 -30 13 -39 30 -20 37 9 3 13 10 10 15 -3 5 0 9 5 9 6 0 11
-4 11 -10 0 -5 5 -10 12 -10 8 0 5 7 -5 18 -17 16 -19 16 -31 0 -10 -13 -15
-15 -24 -6 -9 9 -12 9 -12 0 0 -7 6 -12 13 -12 9 0 8 -3 -2 -9 -11 -7 -11 -9
0 -14 8 -3 4 -6 -10 -6 -17 -1 -22 3 -17 14 4 11 -2 15 -24 15 -34 0 -47 15
-30 35 8 9 8 15 2 15 -6 0 -12 -5 -14 -12 -3 -7 -7 -5 -11 6 -7 17 -2 18 70
13 43 -4 88 -6 101 -7 13 0 21 -4 18 -8 -2 -4 11 -6 30 -4 18 2 42 1 51 -3 10
-4 41 -8 68 -9 71 -4 75 -5 75 -16 0 -7 -6 -7 -20 0 -14 7 -20 7 -20 0 0 -5 7
-10 16 -10 11 0 15 -6 11 -20 -3 -11 -1 -20 4 -20 8 0 13 15 10 33 0 4 4 7 10
7 5 0 7 5 4 10 -3 6 -1 10 4 10 6 0 11 -5 11 -10 0 -14 55 -38 83 -36 39 2 27
21 -14 22 -22 1 -46 7 -52 14 -12 12 -12 12 78 -5 11 -2 44 -4 73 -4 29 -1 51
-4 48 -9 -2 -4 26 -6 64 -4 61 3 69 2 75 -17 4 -13 11 -18 22 -14 8 3 18 1 22
-6 6 -9 12 -7 22 5 8 10 9 15 3 11 -6 -3 -24 -2 -40 3 -28 9 -9 8 136 -5 19
-2 41 -4 48 -4 9 -1 10 -6 3 -20 -8 -14 -6 -23 11 -37 12 -11 18 -13 14 -6 -9
14 10 17 19 2 8 -13 25 -3 25 13 0 7 -4 6 -10 -3 -5 -8 -10 -13 -11 -10 0 3
-2 13 -4 22 -4 23 15 35 26 17 6 -10 9 -11 9 -1 0 7 13 12 33 12 24 0 28 -3
17 -10 -8 -5 -10 -10 -5 -10 6 0 17 6 24 13 11 10 12 9 7 -1 -6 -10 -1 -11 18
-6 17 4 26 2 26 -6 0 -6 -4 -9 -8 -6 -5 3 -9 -8 -9 -24 0 -19 5 -30 14 -30 10
0 12 6 8 20 -7 21 9 50 27 50 6 0 5 -7 -2 -15 -11 -14 -10 -14 14 -5 38 14 55
12 34 -4 -10 -7 -18 -19 -18 -27 0 -11 -2 -11 -10 1 -6 9 -10 10 -10 3 0 -6 5
-15 10 -18 23 -14 7 -21 -35 -15 -25 4 -45 3 -45 -1 0 -6 50 -13 174 -22 10
-1 20 3 22 8 5 15 -14 41 -23 31 -4 -5 -2 -11 5 -13 23 -9 3 -20 -28 -15 -21
3 -30 9 -26 18 3 8 1 14 -4 14 -5 0 -11 -8 -13 -17 -3 -11 -5 -6 -6 11 -1 21
3 27 14 22 8 -3 15 -1 15 4 0 5 7 7 15 4 8 -4 13 -9 10 -13 -2 -4 10 -5 28 -3
l31 5 -24 10 -25 10 24 5 c13 2 28 -1 34 -7 6 -6 16 -11 22 -11 5 0 3 5 -5 11
-11 8 -6 9 20 5 51 -7 191 -20 218 -19 12 0 22 -6 22 -13 0 -7 -6 -11 -14 -8
-8 3 -17 0 -21 -6 -5 -8 -11 -6 -20 6 -11 16 -12 15 -10 -7 4 -38 4 -39 16
-39 5 0 8 4 5 9 -6 10 17 33 30 30 23 -4 35 2 28 14 -5 8 -2 8 9 -2 11 -9 17
-10 17 -2 0 23 19 10 23 -16 4 -27 4 -27 6 -3 1 23 4 25 45 22 33 -3 45 -9 49
-22 7 -27 -39 -36 -66 -13 -19 18 -20 17 -8 -4 14 -27 14 -43 1 -43 -6 0 -9 6
-8 12 2 7 -8 14 -21 16 -15 2 -21 0 -17 -7 5 -7 -3 -11 -19 -11 -23 0 -24 2
-15 20 6 11 18 20 28 21 11 0 13 2 4 6 -7 3 -22 -3 -33 -13 -17 -16 -22 -16
-29 -4 -8 13 -10 12 -10 -2 0 -12 -8 -18 -22 -19 -22 -1 -22 -1 2 -8 45 -14
172 -22 165 -11 -9 14 2 12 29 -5 24 -16 36 -10 49 25 4 11 6 10 6 -4 1 -16 3
-16 21 5 10 13 19 18 20 12 0 -7 -5 -13 -11 -13 -8 0 -7 -5 1 -15 12 -14 10
-15 -13 -11 -15 3 -27 0 -27 -5 0 -5 11 -9 24 -9 12 0 52 -3 87 -6 59 -5 63
-4 45 10 -13 11 -23 13 -30 6 -13 -13 -27 -13 -24 1 2 6 -4 14 -12 16 -13 4
-13 3 0 -6 12 -9 11 -11 -8 -11 -13 0 -20 4 -17 10 3 6 2 10 -3 10 -6 0 -9 7
-8 16 0 9 -7 18 -16 19 -10 2 -18 -1 -18 -6 0 -6 -5 -7 -10 -4 -6 3 -13 -1
-16 -10 -4 -9 -13 -14 -21 -11 -9 4 -11 2 -7 -6 5 -7 3 -8 -6 -3 -11 7 -9 11
7 22 14 9 19 21 16 37 -5 22 -11 24 -84 31 -44 3 -90 8 -102 10 -12 2 -51 6
-87 9 -36 4 -92 9 -125 12 -33 3 -73 7 -90 9 -16 2 -120 13 -230 25 -110 11
-243 25 -295 30 -52 5 -167 17 -255 25 -88 9 -198 20 -245 25 -47 5 -132 14
-190 20 -58 6 -122 13 -143 15 l-38 5 20 -38z m1058 -102 c-1 -21 -23 -35 -32
-20 -4 6 -1 10 4 10 6 0 10 3 10 8 -3 14 1 22 10 22 6 0 9 -9 8 -20z m290 -16
c-3 -3 -12 -4 -19 -1 -8 3 -5 6 6 6 11 1 17 -2 13 -5z"/>
<path d="M1262 1488 c-18 -18 -14 -25 15 -25 21 0 23 1 9 9 -9 5 -14 13 -11
19 8 13 1 11 -13 -3z"/>
<path d="M1374 1435 c-18 -14 -17 -15 7 -6 15 5 30 7 33 4 3 -4 6 -1 6 5 0 17
-22 15 -46 -3z"/>
<path d="M1454 1432 c23 -26 23 -26 23 -7 0 8 -3 13 -5 10 -3 -3 -12 1 -21 7
-10 8 -9 4 3 -10z"/>
<path d="M1490 1436 c0 -8 4 -17 9 -20 5 -4 7 3 4 14 -6 23 -13 26 -13 6z"/>
<path d="M1425 1420 c-3 -5 1 -10 10 -10 9 0 13 5 10 10 -3 6 -8 10 -10 10 -2
0 -7 -4 -10 -10z"/>
<path d="M1550 1419 c0 -15 24 -23 28 -10 4 11 6 11 14 0 8 -12 9 -12 6 0 -4
15 -48 24 -48 10z"/>
<path d="M1657 1421 c-10 -4 -18 -11 -17 -16 0 -6 -14 -13 -32 -16 -28 -5 -29
-7 -8 -8 14 -1 44 -4 68 -7 28 -3 42 -1 42 7 0 8 -12 10 -36 6 -31 -5 -34 -4
-23 9 7 8 18 13 26 10 7 -3 13 -1 13 4 0 14 -13 18 -33 11z"/>
<path d="M1808 1423 c7 -3 16 -2 19 1 4 3 -2 6 -13 5 -11 0 -14 -3 -6 -6z"/>
<path d="M1840 1420 c0 -5 5 -10 11 -10 5 0 7 5 4 10 -3 6 -8 10 -11 10 -2 0
-4 -4 -4 -10z"/>
<path d="M4376 1422 c-3 -5 1 -9 9 -9 8 0 12 4 9 9 -3 4 -7 8 -9 8 -2 0 -6 -4
-9 -8z"/>
<path d="M1526 1405 c4 -8 10 -15 15 -15 4 0 6 7 3 15 -4 8 -10 15 -15 15 -4
0 -6 -7 -3 -15z"/>
<path d="M1715 1410 c-11 -5 -15 -9 -8 -9 6 -1 13 -9 15 -18 3 -13 6 -10 10
10 3 15 5 27 4 26 0 0 -10 -4 -21 -9z"/>
<path d="M1887 1410 c9 -10 10 -17 2 -27 -7 -8 -8 -13 -1 -13 18 0 21 28 4 41
-14 11 -15 11 -5 -1z"/>
<path d="M4434 1405 c-4 -8 -12 -15 -19 -15 -16 0 -29 -35 -20 -50 8 -13 35
-13 35 -1 0 6 -5 13 -12 17 -7 4 -8 3 -4 -4 4 -7 2 -12 -3 -12 -21 0 -11 31
13 42 26 11 43 38 25 38 -5 0 -12 -7 -15 -15z"/>
<path d="M1812 1394 c10 -10 20 -16 22 -13 3 3 -5 11 -17 18 -21 13 -21 12 -5
-5z"/>
<path d="M1995 1400 c-4 -6 -11 -8 -16 -5 -15 10 -10 -2 8 -16 14 -12 16 -12
8 0 -6 11 -4 13 8 8 11 -4 14 -2 10 9 -6 17 -10 17 -18 4z"/>
<path d="M1935 1390 c-3 -5 -4 -14 0 -19 3 -5 -9 -12 -27 -14 l-33 -5 35 2
c28 1 34 5 32 20 -2 11 1 15 7 11 6 -3 11 -15 11 -26 0 -14 6 -19 28 -18 23 2
24 2 5 6 -13 2 -23 10 -23 17 0 20 -27 40 -35 26z"/>
<path d="M2030 1391 c0 -6 5 -13 10 -16 6 -3 10 1 10 9 0 9 -4 16 -10 16 -5 0
-10 -4 -10 -9z"/>
<path d="M2110 1390 c-9 -6 -10 -10 -3 -10 6 0 15 5 18 10 8 12 4 12 -15 0z"/>
<path d="M2150 1389 c-13 -9 -13 -10 0 -8 28 3 40 -1 38 -12 -2 -6 2 -13 7
-15 6 -2 11 4 11 15 0 11 -4 18 -7 15 -4 -2 -10 0 -14 6 -8 13 -16 12 -35 -1z"/>
<path d="M4466 1378 c3 -5 10 -6 15 -3 13 9 11 12 -6 12 -8 0 -12 -4 -9 -9z"/>
<path d="M1770 1370 c0 -6 17 -10 37 -10 43 0 41 5 -4 13 -19 4 -33 2 -33 -3z"/>
<path d="M2324 1345 c-19 -19 -32 -24 -47 -19 -15 4 -19 3 -12 -4 6 -5 35 -12
67 -14 47 -4 55 -2 50 10 -3 9 -1 13 5 9 12 -7 26 17 16 27 -11 11 -23 6 -23
-9 0 -8 -2 -15 -4 -15 -2 0 -12 -3 -20 -6 -14 -5 -15 -2 -6 20 12 33 6 33 -26
1z m8 -17 c-7 -7 -12 -8 -12 -2 0 6 3 14 7 17 3 4 9 5 12 2 2 -3 -1 -11 -7
-17z"/>
<path d="M2120 1352 c0 -4 -20 -7 -44 -7 -24 0 -42 -3 -40 -7 9 -14 94 -6 94
8 0 8 -2 14 -5 14 -3 0 -5 -3 -5 -8z"/>
<path d="M2164 1348 c3 -10 -1 -18 -12 -21 -12 -3 -11 -5 6 -6 24 -1 27 6 11
29 -9 13 -10 13 -5 -2z"/>
<path d="M2710 1334 c0 -14 3 -14 15 -4 8 7 15 14 15 16 0 2 -7 4 -15 4 -8 0
-15 -7 -15 -16z"/>
<path d="M2747 1337 c-3 -8 1 -14 9 -14 16 0 19 13 5 21 -5 3 -11 0 -14 -7z"/>
<path d="M4444 1323 c-1 -14 3 -22 10 -20 6 3 10 10 9 16 -4 14 14 15 22 1 3
-5 12 -10 18 -9 9 0 8 2 -1 6 -6 2 -9 10 -5 16 3 7 3 9 -1 5 -5 -4 -18 -3 -30
1 -18 7 -21 5 -22 -16z"/>
<path d="M2633 1325 c0 -8 4 -12 9 -9 4 3 8 9 8 15 0 5 -4 9 -8 9 -5 0 -9 -7
-9 -15z"/>
<path d="M2203 1323 c9 -2 25 -2 35 0 9 3 1 5 -18 5 -19 0 -27 -2 -17 -5z"/>
<path d="M2685 1309 c-4 -12 -10 -17 -14 -11 -4 6 -10 5 -18 -4 -10 -10 -4
-14 35 -19 26 -3 62 -8 80 -11 17 -3 32 -1 32 3 0 4 -19 9 -43 11 -23 1 -44 7
-45 12 -2 6 -8 7 -14 4 -6 -4 -8 1 -3 15 3 11 4 21 1 21 -2 0 -8 -10 -11 -21z"/>
<path d="M3165 1315 c50 -7 91 -14 93 -14 2 -1 -3 -10 -11 -22 -13 -18 -13
-23 8 -43 19 -19 37 -24 89 -28 36 -2 61 -1 54 3 -6 4 -8 15 -4 25 4 10 2 21
-5 25 -6 4 -8 12 -5 18 10 15 49 14 65 -1 11 -11 13 -10 7 2 -4 8 0 6 8 -4 10
-12 16 -15 16 -7 0 10 12 12 43 8 23 -3 74 -8 112 -11 39 -4 79 -8 90 -10 11
-3 27 -5 36 -5 18 -1 51 -60 42 -74 -3 -5 -10 -3 -15 4 -8 11 -9 11 -5 -1 5
-21 73 -26 92 -6 23 22 18 32 -6 10 -25 -23 -45 -12 -64 33 l-14 33 52 -5 c29
-3 77 -8 107 -12 30 -3 63 -5 74 -4 10 2 15 -2 12 -7 -4 -6 -2 -13 4 -17 21
-13 10 -26 -12 -15 -22 11 -22 10 -4 -4 10 -9 23 -13 27 -10 5 3 9 -1 10 -8 0
-7 4 -4 9 7 11 26 12 44 1 27 -6 -10 -11 -9 -22 4 -13 16 -8 16 76 10 50 -4
102 -9 118 -10 15 -2 27 0 27 4 0 4 -37 10 -82 13 -46 4 -168 15 -273 27 -686
72 -985 98 -750 65z m206 -42 c5 -14 8 -32 5 -39 -6 -15 -83 -17 -92 -2 -6 10
22 41 46 51 12 4 12 6 -1 6 -8 1 -26 -10 -39 -24 -24 -26 -32 -25 -36 0 -1 9
6 15 17 15 10 0 19 5 19 10 0 6 16 10 35 10 29 0 37 -5 46 -27z"/>
<path d="M3320 1252 c0 -12 3 -12 15 -2 8 7 15 13 15 15 0 1 -7 2 -15 2 -8 0
-15 -7 -15 -15z"/>
<path d="M2780 1311 c0 -10 19 -25 25 -20 1 2 -3 10 -11 17 -8 7 -14 8 -14 3z"/>
<path d="M3010 1300 c0 -5 5 -10 11 -10 5 0 7 5 4 10 -3 6 -8 10 -11 10 -2 0
-4 -4 -4 -10z"/>
<path d="M3196 1283 c-3 -7 0 -15 6 -19 7 -5 8 -2 3 6 -6 10 -4 12 8 7 8 -3
17 0 20 6 3 7 -3 13 -14 13 -10 0 -21 -6 -23 -13z"/>
<path d="M4413 1285 c0 -7 7 -11 15 -7 10 3 13 1 8 -6 -9 -15 7 -23 24 -11 13
7 13 9 0 9 -13 0 -13 1 0 11 13 9 13 10 0 6 -8 -2 -22 -1 -31 4 -10 5 -16 3
-16 -6z"/>
<path d="M4481 1279 c-1 -26 -42 -56 -62 -44 -5 3 -6 -1 -3 -9 5 -12 9 -13 25
-3 15 9 21 8 33 -8 21 -27 20 -35 -4 -35 -11 0 -20 7 -20 15 0 13 -4 14 -21 4
-14 -7 -24 -8 -28 -1 -4 6 -11 5 -18 -4 -8 -8 -9 -15 -3 -19 6 -3 10 -2 10 2
0 5 9 9 20 9 11 0 20 -6 20 -12 0 -8 10 -11 27 -8 15 3 24 2 20 -2 -4 -4 -2
-13 5 -21 9 -11 7 -15 -10 -20 -30 -7 -28 -21 2 -16 14 3 33 14 42 24 17 18
17 19 1 13 -12 -4 -16 -2 -14 7 2 8 2 11 0 7 -11 -19 -23 -6 -13 12 8 15 7 25
-4 41 -11 17 -12 25 -3 40 7 11 15 19 20 19 4 0 6 -4 3 -9 -3 -5 1 -22 10 -37
15 -27 16 -28 10 -4 -3 14 -6 33 -6 43 0 9 -6 17 -14 17 -8 0 -17 6 -19 13 -3
6 -6 0 -6 -14z"/>
<path d="M2815 1279 c-4 -6 -5 -12 -2 -15 2 -3 7 2 10 11 7 17 1 20 -8 4z"/>
<path d="M3420 1258 c-12 -8 -11 -9 3 -4 12 4 17 2 14 -6 -2 -7 -12 -12 -21
-12 -20 2 -20 -3 -2 -22 22 -22 33 -17 34 16 1 34 -8 43 -28 28z"/>
<path d="M3495 1250 c2 -8 4 -21 6 -29 2 -7 -2 -16 -10 -19 -8 -2 -11 0 -7 6
3 6 2 13 -4 17 -6 4 -7 12 -3 18 4 7 0 6 -10 -2 -19 -15 -23 -26 -5 -15 7 5 9
2 5 -9 -9 -25 52 -36 111 -21 25 7 30 21 7 21 -8 0 -15 -4 -15 -9 0 -4 -8 -8
-17 -8 -15 0 -16 2 -3 10 13 8 13 10 -2 10 -9 0 -19 -6 -22 -12 -3 -7 -4 -2
-1 12 2 14 -1 32 -6 40 -9 13 -10 12 -5 -2 6 -20 -10 -25 -17 -5 -2 6 -3 5 -2
-3z"/>
<path d="M3540 1250 c0 -5 5 -10 10 -10 6 0 10 5 10 10 0 6 -4 10 -10 10 -5 0
-10 -4 -10 -10z"/>
<path d="M3612 1231 c1 -18 7 -27 14 -24 7 2 15 0 19 -6 4 -7 -4 -11 -21 -11
-15 0 -25 -3 -21 -6 3 -4 22 -3 42 0 27 5 35 12 35 28 0 17 2 18 15 8 13 -11
14 -10 9 4 -7 19 -38 18 -40 -2 -3 -23 -4 -23 -19 -8 -17 16 -20 30 -6 21 5
-3 13 0 17 6 4 7 3 9 -4 5 -6 -3 -13 -2 -17 4 -12 20 -25 9 -23 -19z"/>
<path d="M3570 1240 c0 -5 5 -10 11 -10 5 0 7 5 4 10 -3 6 -8 10 -11 10 -2 0
-4 -4 -4 -10z"/>
<path d="M3723 1233 c14 -4 16 -8 6 -19 -16 -20 -2 -17 21 4 19 17 19 18 -13
19 -18 1 -24 -1 -14 -4z"/>
<path d="M3923 1223 c-7 -2 -13 -13 -13 -24 0 -11 -7 -22 -16 -26 -13 -5 -13
-7 -2 -14 18 -12 78 -11 78 0 0 5 -9 7 -20 4 -16 -4 -19 -2 -13 12 5 14 3 16
-7 10 -10 -6 -12 -4 -7 9 4 10 7 20 7 22 0 3 5 2 10 -1 6 -3 10 -1 10 4 0 12
-7 13 -27 4z m-3 -53 c0 -5 -5 -10 -11 -10 -5 0 -7 5 -4 10 3 6 8 10 11 10 2
0 4 -4 4 -10z"/>
<path d="M3820 1206 c0 -2 8 -10 18 -17 15 -13 16 -12 3 4 -13 16 -21 21 -21
13z"/>
<path d="M4276 1193 c-6 -14 -5 -15 5 -6 7 7 10 15 7 18 -3 3 -9 -2 -12 -12z"/>
<path d="M3955 1190 c-3 -5 -1 -10 4 -10 6 0 11 5 11 10 0 6 -2 10 -4 10 -3 0
-8 -4 -11 -10z"/>
<path d="M4134 1191 c8 -12 -31 -44 -43 -36 -6 3 -11 2 -11 -3 0 -22 16 -20
42 5 29 28 35 43 17 43 -5 0 -8 -4 -5 -9z"/>
<path d="M4206 1191 c-3 -4 6 -18 19 -31 13 -13 22 -26 20 -30 -5 -8 0 -9 98
-14 77 -4 78 -4 61 15 -9 10 -22 19 -28 19 -6 0 -4 -4 4 -10 23 -15 -12 -23
-52 -12 -18 5 -41 8 -51 6 -14 -2 -17 3 -13 19 3 12 3 16 0 10 -3 -7 -10 -13
-15 -13 -6 0 -8 4 -5 8 3 5 -4 16 -14 25 -11 9 -22 13 -24 8z"/>
<path d="M3710 1180 c0 -5 5 -10 10 -10 6 0 10 5 10 10 0 6 -4 10 -10 10 -5 0
-10 -4 -10 -10z"/>
<path d="M3980 1172 c0 -10 6 -19 13 -20 6 -1 28 -4 47 -8 25 -4 31 -3 20 5
-8 5 -18 7 -22 5 -4 -3 -8 -1 -8 4 0 6 -8 9 -17 8 -10 0 -17 5 -15 12 1 6 -2
12 -8 12 -5 0 -10 -8 -10 -18z"/>
<path d="M4516 1175 c4 -8 7 -15 9 -15 2 0 5 7 9 15 3 9 0 15 -9 15 -9 0 -12
-6 -9 -15z"/>
<path d="M4181 1153 c-11 -12 -15 -13 -23 -1 -8 10 -9 10 -5 -2 2 -8 14 -15
26 -14 11 0 21 -3 21 -8 0 -4 7 -8 15 -8 8 0 15 5 15 12 0 6 -3 8 -7 4 -4 -3
-12 2 -17 13 -10 17 -13 17 -25 4z"/>
<path d="M4302 1156 c7 -8 15 -12 17 -11 5 6 -10 25 -20 25 -5 0 -4 -6 3 -14z"/>
<path d="M4335 1151 c-3 -5 -1 -12 4 -15 5 -3 11 1 15 9 6 16 -9 21 -19 6z"/>
<path d="M4678 1603 c7 -3 16 -2 19 1 4 3 -2 6 -13 5 -11 0 -14 -3 -6 -6z"/>
<path d="M4659 1588 c7 -10 23 -17 35 -17 20 1 20 2 1 6 -11 3 -27 10 -35 17
-13 10 -13 9 -1 -6z"/>
<path d="M6370 1411 c-85 -21 -108 -29 -87 -33 15 -3 27 -1 27 5 0 6 3 8 6 5
3 -3 21 -2 40 4 43 11 63 -2 56 -37 -2 -14 0 -25 7 -25 6 0 8 7 4 17 -4 10 -2
14 4 10 5 -3 10 0 10 8 0 8 -4 15 -9 15 -5 0 -7 4 -3 9 3 5 -3 12 -12 14 -15
4 -14 5 3 6 12 1 25 -8 30 -20 9 -20 10 -20 24 -3 13 16 13 17 -2 12 -10 -4
-19 -1 -22 8 -6 17 16 19 47 3 21 -10 21 -10 3 5 -19 15 -18 16 13 16 18 0 30
-4 27 -9 -4 -5 -1 -11 6 -13 7 -3 8 -10 4 -17 -7 -11 -10 -11 -17 0 -5 9 -7 3
-6 -16 2 -18 8 -30 17 -31 22 -1 31 6 24 17 -4 6 -11 6 -20 -2 -9 -8 -14 -8
-14 -1 0 6 7 15 16 20 11 6 13 16 9 35 -9 35 -32 34 -185 -2z"/>
<path d="M6140 1361 c-128 -31 -318 -71 -334 -71 -8 0 -18 -5 -22 -12 -5 -8
-2 -9 9 -5 10 4 17 1 17 -6 0 -9 2 -9 8 0 4 7 22 15 41 18 30 5 32 4 26 -16
-6 -19 -5 -20 8 -8 8 8 13 19 10 25 -2 6 10 14 28 18 48 9 55 7 33 -10 -18
-15 -18 -15 3 -5 12 6 23 16 26 23 3 10 7 10 18 1 10 -8 19 -9 29 -1 12 8 12
9 -2 4 -10 -3 -18 -1 -18 4 0 6 12 10 28 10 15 0 37 3 49 6 14 4 28 -1 43 -16
l21 -21 6 20 c3 11 9 18 14 15 5 -3 5 -14 -1 -25 -15 -28 -5 -23 15 7 9 15 12
24 7 20 -6 -3 -13 0 -16 6 -3 10 -8 9 -18 -3 -11 -14 -17 -15 -31 -4 -15 11
-13 13 20 19 57 9 75 8 67 -6 -4 -7 -3 -8 5 -4 6 4 9 11 6 16 -3 4 1 11 7 13
29 12 -32 4 -102 -12z"/>
<path d="M6472 1362 l-22 -7 21 -13 c12 -8 18 -9 15 -3 -4 5 2 14 11 20 20 11
10 12 -25 3z"/>
<path d="M6255 1350 c3 -5 14 -10 23 -10 15 0 15 2 2 10 -20 13 -33 13 -25 0z"/>
<path d="M6349 1333 c8 -15 8 -23 1 -23 -6 0 -6 -7 2 -20 15 -23 35 -27 35 -6
0 8 -6 12 -14 9 -21 -8 -15 15 7 27 24 13 26 27 5 27 -8 0 -15 -5 -15 -10 0
-5 -7 -3 -17 4 -15 13 -15 12 -4 -8z"/>
<path d="M6500 1338 c0 -7 5 -20 10 -28 8 -12 10 -11 10 7 0 12 -4 25 -10 28
-5 3 -10 0 -10 -7z"/>
<path d="M6320 1330 c0 -5 5 -10 11 -10 5 0 7 5 4 10 -3 6 -8 10 -11 10 -2 0
-4 -4 -4 -10z"/>
<path d="M6443 1328 c1 -8 -6 -12 -18 -11 -11 1 -14 0 -7 -3 18 -8 15 -24 -5
-24 -9 0 -14 -3 -10 -6 9 -9 47 6 44 18 -1 6 4 13 11 15 8 3 10 -1 6 -11 -3
-9 -1 -16 6 -16 6 0 8 5 4 12 -5 8 -2 9 12 4 16 -6 16 -5 -3 13 -25 24 -44 27
-40 9z"/>
<path d="M6209 1313 c-13 -16 -12 -17 4 -4 16 13 21 21 13 21 -2 0 -10 -8 -17
-17z"/>
<path d="M6260 1306 c0 -2 7 -7 16 -10 8 -3 12 -2 9 4 -6 10 -25 14 -25 6z"/>
<path d="M6220 1291 c0 -7 -4 -9 -10 -6 -5 3 -10 1 -10 -4 0 -6 4 -11 9 -11
13 0 25 20 17 27 -3 4 -6 1 -6 -6z"/>
<path d="M5926 1276 c3 -9 2 -16 -3 -16 -5 0 -9 -9 -9 -19 0 -11 4 -17 8 -15
5 3 17 -5 28 -18 18 -23 18 -23 -3 -30 l-22 -6 22 -1 c28 -1 37 13 18 29 -8 7
-13 16 -10 20 3 4 -2 11 -11 14 -10 4 -13 13 -9 25 3 11 1 22 -4 26 -7 3 -8 0
-5 -9z"/>
<path d="M6040 1279 c0 -6 -7 -9 -14 -6 -10 4 -13 1 -9 -9 4 -10 9 -12 18 -4
6 5 15 7 19 3 4 -4 4 0 0 10 -7 19 -14 22 -14 6z"/>
<path d="M5683 1263 c-40 -9 -73 -19 -73 -23 0 -4 12 -5 26 -2 18 3 25 1 24
-9 -4 -26 0 -36 14 -36 8 0 12 6 8 15 -4 11 -1 13 8 7 8 -5 11 -3 8 6 -3 8
-10 14 -15 14 -26 0 -22 13 5 17 24 3 28 1 26 -16 -1 -12 -5 -29 -9 -38 -4
-11 -3 -18 5 -18 6 0 9 4 5 9 -3 5 2 16 10 24 8 9 11 17 5 19 -6 2 -6 9 0 17
7 12 11 13 25 1 13 -11 18 -11 28 0 9 10 9 11 0 6 -19 -10 -39 4 -22 15 18 11
10 10 -78 -8z"/>
<path d="M6146 1267 c-17 -13 -17 -14 -1 -30 9 -9 22 -17 28 -16 8 0 8 2 -1 6
-6 2 -9 10 -6 15 4 6 2 8 -4 4 -6 -3 -13 -2 -17 4 -3 5 1 10 9 10 9 0 16 5 16
10 0 13 -3 13 -24 -3z"/>
<path d="M6235 1266 c-11 -8 -14 -15 -8 -19 6 -4 14 0 17 9 3 8 11 12 17 8 8
-4 7 -9 -2 -16 -10 -6 -6 -7 11 -3 14 4 30 12 35 18 7 7 6 8 -2 3 -7 -4 -21
-2 -31 3 -14 7 -24 6 -37 -3z"/>
<path d="M6075 1260 c-3 -6 1 -7 9 -4 18 7 21 14 7 14 -6 0 -13 -4 -16 -10z"/>
<path d="M5996 1243 c-4 -9 -3 -20 1 -24 4 -4 9 3 9 17 2 28 -1 31 -10 7z"/>
<path d="M6196 1245 c-3 -9 0 -15 9 -15 9 0 12 6 9 15 -4 8 -7 15 -9 15 -2 0
-5 -7 -9 -15z"/>
<path d="M5857 1239 c7 -7 15 -10 18 -7 3 3 -2 9 -12 12 -14 6 -15 5 -6 -5z"/>
<path d="M5500 1223 c-36 -8 -216 -48 -400 -89 -184 -41 -348 -78 -365 -82
-29 -8 -30 -10 -31 -78 -1 -50 1 -63 7 -46 5 13 7 28 4 32 -3 5 4 7 16 5 22
-4 22 -4 -1 17 -14 13 -19 23 -12 26 7 2 12 8 12 13 0 6 -4 7 -10 4 -5 -3 -10
-1 -10 4 0 19 40 12 41 -6 0 -14 2 -13 9 5 5 12 15 22 21 22 8 0 8 -4 -1 -15
-11 -13 -10 -14 6 -8 17 6 17 5 5 -10 -12 -15 -11 -17 2 -17 15 0 16 27 2 50
-3 6 2 10 12 10 10 0 49 7 87 17 58 14 72 14 90 3 19 -12 20 -12 7 3 -12 15
-11 17 7 17 11 0 22 -3 25 -7 2 -5 2 -2 0 5 -1 8 3 12 9 9 7 -2 12 -10 10 -16
-1 -7 2 -10 7 -7 5 4 12 0 14 -6 7 -18 27 10 20 28 -5 13 50 30 67 19 5 -3 10
-1 10 4 0 13 36 15 44 3 3 -5 -2 -21 -10 -37 -11 -21 -11 -25 -1 -17 8 7 17 8
23 2 5 -5 17 -2 29 7 19 15 19 15 -9 9 -26 -7 -28 -5 -22 18 4 15 1 26 -7 30
-6 3 -3 5 8 4 11 0 28 2 37 6 23 10 37 0 31 -23 -3 -13 -10 -18 -21 -13 -14 5
-15 4 -2 -10 8 -9 17 -12 18 -7 2 5 8 6 14 3 6 -4 8 2 3 16 -6 17 -4 21 6 14
12 -6 12 -5 0 9 -11 14 -11 17 0 19 8 0 19 2 24 2 6 1 15 5 21 8 6 4 26 10 45
13 19 3 51 10 71 16 20 5 40 9 45 8 4 -1 19 2 33 8 14 6 34 13 45 16 l20 5
-20 0 c-11 0 -49 -6 -85 -15z m-425 -131 c-8 -8 -25 10 -19 20 4 6 9 5 15 -3
4 -7 6 -15 4 -17z"/>
<path d="M5833 1225 c0 -8 6 -16 14 -19 11 -4 11 -1 3 14 -13 24 -17 25 -17 5z"/>
<path d="M6034 1228 c12 -7 21 -7 28 0 6 6 0 10 -18 10 -23 0 -24 -2 -10 -10z"/>
<path d="M5794 1215 c-18 -14 -18 -14 4 -8 12 3 22 9 22 14 0 12 -3 11 -26 -6z"/>
<path d="M6086 1219 c2 -4 -4 -10 -13 -12 -15 -4 -15 -5 2 -5 11 0 31 3 45 7
24 7 24 8 -7 12 -18 3 -30 2 -27 -2z"/>
<path d="M5590 1209 c0 -5 5 -7 10 -4 6 3 10 8 10 11 0 2 -4 4 -10 4 -5 0 -10
-5 -10 -11z"/>
<path d="M6022 1208 c5 -15 28 -23 28 -10 0 5 -7 13 -16 16 -10 4 -14 1 -12
-6z"/>
<path d="M5555 1201 c-6 -11 13 -26 22 -17 4 3 1 6 -6 6 -7 0 -9 5 -6 10 3 6
4 10 1 10 -3 0 -7 -4 -11 -9z"/>
<path d="M5741 1190 c-9 -5 -4 -7 13 -7 29 0 32 2 13 10 -8 3 -20 2 -26 -3z"/>
<path d="M5526 1165 c4 -8 9 -15 13 -15 3 0 6 -11 6 -25 0 -14 -3 -25 -7 -25
-5 0 -8 -8 -8 -17 0 -14 4 -12 17 7 9 14 22 29 27 33 7 5 3 6 -7 3 -12 -4 -17
-2 -14 6 2 7 13 13 25 13 11 0 25 5 29 9 5 5 2 6 -6 1 -11 -6 -13 -4 -8 10 7
16 6 16 -17 2 -21 -14 -25 -14 -30 -2 -3 8 -10 15 -15 15 -6 0 -8 -7 -5 -15z"/>
<path d="M5900 1170 c0 -5 5 -10 10 -10 6 0 10 5 10 10 0 6 -4 10 -10 10 -5 0
-10 -4 -10 -10z"/>
<path d="M5480 1168 c0 -2 9 -11 20 -21 11 -9 20 -13 20 -7 0 5 -9 14 -20 20
-11 6 -20 9 -20 8z"/>
<path d="M5740 1160 c0 -5 5 -10 11 -10 5 0 7 5 4 10 -3 6 -8 10 -11 10 -2 0
-4 -4 -4 -10z"/>
<path d="M5310 1156 c0 -9 32 -36 42 -36 6 0 1 9 -12 20 -23 20 -30 24 -30 16z"/>
<path d="M5438 1154 c-14 -14 -8 -30 12 -31 11 -1 20 3 20 8 0 6 -4 8 -9 4 -5
-3 -11 2 -13 11 -2 9 -6 12 -10 8z"/>
<path d="M5630 1145 c-10 -12 -10 -15 2 -15 8 0 15 7 15 15 0 8 -1 15 -2 15
-2 0 -8 -7 -15 -15z"/>
<path d="M5680 1140 c0 -5 5 -10 11 -10 5 0 7 5 4 10 -3 6 -8 10 -11 10 -2 0
-4 -4 -4 -10z"/>
<path d="M5775 1140 c-19 -8 -19 -9 3 -9 12 -1 22 4 22 9 0 6 -1 10 -2 9 -2 0
-12 -4 -23 -9z"/>
<path d="M5373 1117 c-2 -16 0 -18 7 -8 7 13 11 13 26 0 11 -8 15 -9 10 -2 -4
7 -15 17 -24 22 -14 8 -18 5 -19 -12z"/>
<path d="M5483 1106 c1 -11 9 -21 17 -23 10 -3 11 -2 4 4 -6 4 -14 15 -17 23
-5 11 -6 9 -4 -4z"/>
<path d="M5688 1113 c7 -3 16 -2 19 1 4 3 -2 6 -13 5 -11 0 -14 -3 -6 -6z"/>
<path d="M5100 1100 c0 -5 7 -7 15 -4 8 4 15 8 15 10 0 2 -7 4 -15 4 -8 0 -15
-4 -15 -10z"/>
<path d="M5175 1100 c-3 -5 -12 -7 -20 -3 -8 3 -15 3 -15 0 0 -13 30 -14 40
-1 7 8 10 14 7 14 -3 0 -8 -4 -12 -10z"/>
<path d="M5648 1103 c7 -3 16 -2 19 1 4 3 -2 6 -13 5 -11 0 -14 -3 -6 -6z"/>
<path d="M5397 1076 c-4 -11 -1 -13 10 -9 11 4 14 2 9 -5 -4 -7 -13 -12 -21
-12 -8 0 -16 -4 -19 -9 -4 -5 3 -7 14 -4 11 3 22 9 25 13 3 5 15 6 28 4 l22
-5 -22 10 c-13 6 -23 15 -23 21 0 15 -17 12 -23 -4z"/>
<path d="M5305 1070 c-17 -6 -17 -8 5 -23 13 -9 26 -14 29 -10 3 3 0 8 -6 10
-7 3 -13 9 -13 14 0 6 4 8 9 4 5 -3 12 -2 15 3 6 10 -13 11 -39 2z"/>
<path d="M4886 1062 c-3 -5 1 -9 9 -9 8 0 12 4 9 9 -3 4 -7 8 -9 8 -2 0 -6 -4
-9 -8z"/>
<path d="M5190 1055 c-8 -10 -9 -15 -2 -15 6 0 13 4 16 9 3 5 16 7 29 4 12 -3
19 -2 14 2 -14 15 -45 15 -57 0z"/>
<path d="M5478 1063 c7 -3 16 -2 19 1 4 3 -2 6 -13 5 -11 0 -14 -3 -6 -6z"/>
<path d="M4991 1053 c-1 -17 16 -25 25 -12 4 7 3 9 -4 5 -5 -3 -13 0 -15 6 -4
9 -6 10 -6 1z"/>
<path d="M4816 1038 c3 -5 10 -6 15 -3 13 9 11 12 -6 12 -8 0 -12 -4 -9 -9z"/>
<path d="M5135 1040 c3 -5 8 -10 11 -10 2 0 4 5 4 10 0 6 -5 10 -11 10 -5 0
-7 -4 -4 -10z"/>
<path d="M4873 1033 c-7 -2 -13 -9 -13 -14 0 -6 4 -7 10 -4 6 3 7 -1 4 -9 -4
-9 -1 -16 6 -16 7 0 10 8 7 20 -3 10 0 21 7 24 6 2 7 4 1 4 -5 0 -16 -2 -22
-5z"/>
<path d="M5076 1033 c-3 -3 -3 -18 0 -33 5 -24 2 -28 -21 -33 -21 -4 -33 1
-51 22 -13 14 -24 23 -24 19 0 -4 7 -14 16 -22 19 -19 10 -36 -18 -36 -12 0
-19 -3 -15 -6 7 -7 116 17 123 27 2 5 10 6 17 4 7 -3 33 1 59 8 38 10 45 15
38 27 -6 9 -10 10 -10 3 0 -19 -81 -38 -91 -22 -4 8 -3 19 2 25 10 12 -13 28
-25 17z"/>
<path d="M5226 1023 c-11 -11 -6 -23 9 -23 8 0 15 4 15 9 0 13 -16 22 -24 14z"/>
<path d="M5280 1020 c-21 -7 -21 -8 -5 -9 11 0 27 4 35 9 18 11 5 11 -30 0z"/>
<path d="M4900 1000 c0 -19 3 -21 12 -12 9 9 9 15 0 24 -9 9 -12 7 -12 -12z"/>
<path d="M4937 999 c7 -7 15 -10 18 -7 3 3 -2 9 -12 12 -14 6 -15 5 -6 -5z"/>
<path d="M4740 997 c0 -3 15 -10 32 -16 18 -6 28 -7 23 -2 -12 10 -55 25 -55
18z"/>
<path d="M4825 990 c-8 -13 3 -30 18 -30 8 0 7 3 -2 9 -7 5 -10 14 -7 20 4 6
5 11 2 11 -3 0 -8 -4 -11 -10z"/>
<path d="M4950 966 c-8 -6 -16 -18 -18 -26 -1 -10 3 -8 13 5 9 11 23 19 31 17
17 -4 19 4 1 11 -7 3 -19 0 -27 -7z"/>
<path d="M4779 958 c7 -10 17 -15 22 -12 5 3 9 1 9 -4 0 -6 -13 -15 -30 -21
-16 -5 -30 -15 -30 -20 0 -19 24 -12 48 13 25 26 30 51 8 43 -7 -3 -20 0 -27
6 -11 10 -11 9 0 -5z"/>
<path d="M4731 936 c-7 -8 -8 -17 -3 -20 6 -3 12 3 15 14 6 24 4 25 -12 6z"/>
<path d="M4860 931 c0 -7 -4 -9 -10 -6 -5 3 -20 -1 -32 -9 -12 -9 -17 -16 -11
-16 7 0 14 4 18 10 3 5 12 7 19 4 15 -6 32 13 22 23 -3 4 -6 1 -6 -6z"/>
<path d="M4880 930 c0 -5 5 -10 11 -10 5 0 7 5 4 10 -3 6 -8 10 -11 10 -2 0
-4 -4 -4 -10z"/>
<path d="M4690 884 c0 -8 5 -12 10 -9 6 4 8 11 5 16 -9 14 -15 11 -15 -7z"/>
<path d="M4708 1423 c7 -3 16 -2 19 1 4 3 -2 6 -13 5 -11 0 -14 -3 -6 -6z"/>
<path d="M4835 1420 c-3 -5 -1 -10 4 -10 6 0 11 5 11 10 0 6 -2 10 -4 10 -3 0
-8 -4 -11 -10z"/>
<path d="M4890 1412 c0 -11 39 -12 45 -1 4 5 -5 9 -19 9 -14 0 -26 -4 -26 -8z"/>
<path d="M4950 1410 c0 -5 6 -11 13 -11 6 -1 21 -3 32 -4 11 -1 29 2 40 6 14
6 11 7 -14 4 -19 -2 -43 1 -53 6 -12 6 -18 6 -18 -1z"/>
<path d="M5098 1393 c7 -3 16 -2 19 1 4 3 -2 6 -13 5 -11 0 -14 -3 -6 -6z"/>
<path d="M4728 1293 c7 -3 16 -2 19 1 4 3 -2 6 -13 5 -11 0 -14 -3 -6 -6z"/>
</g>
</svg>
